<svg width="80" height="80" viewBox="0 0 80 80" fill="none" xmlns="http://www.w3.org/2000/svg">
<path d="M80 25.4308C79.9921 19.6552 78.022 14.0538 74.413 9.54594C70.8039 5.03803 65.7704 1.89136 60.1384 0.622338C54.5064 -0.646686 48.6104 0.0373142 43.4182 2.56209C38.2259 5.08686 34.0457 9.30243 31.5636 14.517H21.8182V21.7929H12.7273C11.5913 21.7911 10.4831 22.1443 9.55744 22.803C8.63175 23.4617 7.93472 24.3931 7.56364 25.4672L0 47.2585V76.3621C0 77.3269 0.383116 78.2522 1.06507 78.9345C1.74702 79.6167 2.67194 80 3.63636 80H7.27273C8.23715 80 9.16207 79.6167 9.84402 78.9345C10.526 78.2522 10.9091 77.3269 10.9091 76.3621V72.7241H54.5455V76.3621C54.5455 77.3269 54.9286 78.2522 55.6105 78.9345C56.2925 79.6167 57.2174 80 58.1818 80H61.8182C62.7826 80 63.7075 79.6167 64.3895 78.9345C65.0714 78.2522 65.4545 77.3269 65.4545 76.3621V48.4226C69.8014 46.355 73.4744 43.0985 76.0484 39.0296C78.6225 34.9608 79.9925 30.2461 80 25.4308ZM12.7273 27.2498H29.2C29.6172 33.4531 32.3109 39.2834 36.7636 43.6206H7.27273L12.7273 27.2498ZM12.7273 61.8103C11.2806 61.8103 9.89325 61.2354 8.87033 60.212C7.8474 59.1886 7.27273 57.8006 7.27273 56.3534C7.27273 54.9061 7.8474 53.5181 8.87033 52.4947C9.89325 51.4714 11.2806 50.8964 12.7273 50.8964C14.1739 50.8964 15.5613 51.4714 16.5842 52.4947C17.6071 53.5181 18.1818 54.9061 18.1818 56.3534C18.1818 57.8006 17.6071 59.1886 16.5842 60.212C15.5613 61.2354 14.1739 61.8103 12.7273 61.8103ZM52.7273 61.8103C51.2806 61.8103 49.8932 61.2354 48.8703 60.212C47.8474 59.1886 47.2727 57.8006 47.2727 56.3534C47.2727 54.9061 47.8474 53.5181 48.8703 52.4947C49.8932 51.4714 51.2806 50.8964 52.7273 50.8964C54.1739 50.8964 55.5613 51.4714 56.5842 52.4947C57.6071 53.5181 58.1818 54.9061 58.1818 56.3534C58.1818 57.8006 57.6071 59.1886 56.5842 60.212C55.5613 61.2354 54.1739 61.8103 52.7273 61.8103ZM63.3818 41.3286L62.6182 41.7288L61.9636 42.0562C61.4636 42.2732 60.954 42.4674 60.4364 42.6383L59.6364 42.893L58.8 43.1112L58.0727 43.2931C55.5876 43.782 53.0277 43.746 50.5573 43.1875C48.0868 42.629 45.7602 41.5603 43.7267 40.0499C41.6931 38.5394 39.9974 36.6206 38.7482 34.4164C37.4991 32.2122 36.724 29.7711 36.4727 27.2498C36.3991 26.6463 36.3626 26.0388 36.3636 25.4308L36.4364 23.721L36.5091 23.1025L36.6545 22.0839L36.8 21.3199L36.9818 20.556L37.2364 19.6829L37.4182 19.2099C38.8571 15.1735 41.677 11.7764 45.3788 9.62002C49.0806 7.46364 53.4256 6.68698 57.6448 7.42751C61.864 8.16804 65.6853 10.378 68.4323 13.6663C71.1793 16.9545 72.675 21.109 72.6545 25.3944C72.6838 28.6391 71.838 31.8317 70.2061 34.6359C68.5742 37.4401 66.2167 39.7522 63.3818 41.3286ZM50.9091 10.879H58.1818V29.0688H50.9091V10.879ZM50.9091 32.7067H58.1818V39.9826H50.9091V32.7067Z" fill="#075418"/>
</svg>
