<svg width="385" height="344" viewBox="0 0 385 344" fill="none" xmlns="http://www.w3.org/2000/svg">
<rect x="0.5" y="0.5" width="384" height="343" rx="14.5" fill="white"/>
<rect x="0.5" y="0.5" width="384" height="343" rx="14.5" stroke="#075418"/>
<path d="M24.6477 44.9205C24.5568 44.0038 24.1667 43.2917 23.4773 42.7841C22.7879 42.2765 21.8523 42.0227 20.6705 42.0227C19.8674 42.0227 19.1894 42.1364 18.6364 42.3636C18.0833 42.5833 17.6591 42.8902 17.3636 43.2841C17.0758 43.678 16.9318 44.125 16.9318 44.625C16.9167 45.0417 17.0038 45.4053 17.1932 45.7159C17.3902 46.0265 17.6591 46.2955 18 46.5227C18.3409 46.7424 18.7348 46.9356 19.1818 47.1023C19.6288 47.2614 20.1061 47.3977 20.6136 47.5114L22.7045 48.0114C23.7197 48.2386 24.6515 48.5417 25.5 48.9205C26.3485 49.2992 27.0833 49.7652 27.7045 50.3182C28.3258 50.8712 28.8068 51.5227 29.1477 52.2727C29.4962 53.0227 29.6742 53.8826 29.6818 54.8523C29.6742 56.2765 29.3106 57.5114 28.5909 58.5568C27.8788 59.5947 26.8485 60.4015 25.5 60.9773C24.1591 61.5455 22.5417 61.8295 20.6477 61.8295C18.7689 61.8295 17.1326 61.5417 15.7386 60.9659C14.3523 60.3902 13.2689 59.5379 12.4886 58.4091C11.7159 57.2727 11.3106 55.8674 11.2727 54.1932H16.0341C16.0871 54.9735 16.3106 55.625 16.7045 56.1477C17.1061 56.6629 17.6402 57.053 18.3068 57.3182C18.9811 57.5758 19.7424 57.7045 20.5909 57.7045C21.4242 57.7045 22.1477 57.5833 22.7614 57.3409C23.3826 57.0985 23.8636 56.7614 24.2045 56.3295C24.5455 55.8977 24.7159 55.4015 24.7159 54.8409C24.7159 54.3182 24.5606 53.8788 24.25 53.5227C23.947 53.1667 23.5 52.8636 22.9091 52.6136C22.3258 52.3636 21.6098 52.1364 20.7614 51.9318L18.2273 51.2955C16.2652 50.8182 14.7159 50.072 13.5795 49.0568C12.4432 48.0417 11.8788 46.6742 11.8864 44.9545C11.8788 43.5455 12.2538 42.3144 13.0114 41.2614C13.7765 40.2083 14.8258 39.3864 16.1591 38.7955C17.4924 38.2045 19.0076 37.9091 20.7045 37.9091C22.4318 37.9091 23.9394 38.2045 25.2273 38.7955C26.5227 39.3864 27.5303 40.2083 28.25 41.2614C28.9697 42.3144 29.3409 43.5341 29.3636 44.9205H24.6477ZM42.1847 44.0455V47.6818H31.6733V44.0455H42.1847ZM34.0597 39.8636H38.9006V56.1364C38.9006 56.5833 38.9688 56.9318 39.1051 57.1818C39.2415 57.4242 39.4309 57.5947 39.6733 57.6932C39.9233 57.7917 40.2112 57.8409 40.5369 57.8409C40.7642 57.8409 40.9915 57.822 41.2188 57.7841C41.446 57.7386 41.6203 57.7045 41.7415 57.6818L42.5028 61.2841C42.2604 61.3598 41.9195 61.447 41.4801 61.5455C41.0407 61.6515 40.5066 61.7159 39.8778 61.7386C38.7112 61.7841 37.6884 61.6288 36.8097 61.2727C35.9384 60.9167 35.2604 60.3636 34.7756 59.6136C34.2907 58.8636 34.0521 57.9167 34.0597 56.7727V39.8636ZM53.1051 61.8409C51.3097 61.8409 49.7642 61.4773 48.4688 60.75C47.1809 60.0152 46.1884 58.9773 45.4915 57.6364C44.7945 56.2879 44.446 54.6932 44.446 52.8523C44.446 51.0568 44.7945 49.4811 45.4915 48.125C46.1884 46.7689 47.1695 45.7121 48.4347 44.9545C49.7074 44.197 51.1998 43.8182 52.9119 43.8182C54.0634 43.8182 55.1354 44.0038 56.1278 44.375C57.1278 44.7386 57.9991 45.2879 58.7415 46.0227C59.4915 46.7576 60.0748 47.6818 60.4915 48.7955C60.9081 49.9015 61.1165 51.197 61.1165 52.6818V54.0114H46.3778V51.0114H56.5597C56.5597 50.3144 56.4081 49.697 56.1051 49.1591C55.8021 48.6212 55.3816 48.2008 54.8438 47.8977C54.3134 47.5871 53.696 47.4318 52.9915 47.4318C52.2566 47.4318 51.6051 47.6023 51.0369 47.9432C50.4763 48.2765 50.0369 48.7273 49.7188 49.2955C49.4006 49.8561 49.2377 50.4811 49.2301 51.1705V54.0227C49.2301 54.8864 49.3892 55.6326 49.7074 56.2614C50.0331 56.8902 50.4915 57.375 51.0824 57.7159C51.6733 58.0568 52.3741 58.2273 53.1847 58.2273C53.7225 58.2273 54.215 58.1515 54.6619 58C55.1089 57.8485 55.4915 57.6212 55.8097 57.3182C56.1278 57.0152 56.3703 56.6439 56.5369 56.2045L61.0142 56.5C60.7869 57.5758 60.321 58.5152 59.6165 59.3182C58.9195 60.1136 58.018 60.7348 56.9119 61.1818C55.8134 61.6212 54.5445 61.8409 53.1051 61.8409ZM64.2756 68.0455V44.0455H69.0483V46.9773H69.2642C69.4763 46.5076 69.7831 46.0303 70.1847 45.5455C70.5938 45.053 71.1241 44.6439 71.7756 44.3182C72.4347 43.9848 73.2528 43.8182 74.2301 43.8182C75.5028 43.8182 76.6771 44.1515 77.7528 44.8182C78.8286 45.4773 79.6884 46.4735 80.3324 47.8068C80.9763 49.1326 81.2983 50.7955 81.2983 52.7955C81.2983 54.7424 80.9839 56.3864 80.3551 57.7273C79.7339 59.0606 78.8854 60.072 77.8097 60.7614C76.7415 61.4432 75.5445 61.7841 74.2188 61.7841C73.2794 61.7841 72.4801 61.6288 71.821 61.3182C71.1695 61.0076 70.6354 60.6174 70.2188 60.1477C69.8021 59.6705 69.4839 59.1894 69.2642 58.7045H69.1165V68.0455H64.2756ZM69.0142 52.7727C69.0142 53.8106 69.1581 54.7159 69.446 55.4886C69.7339 56.2614 70.1506 56.8636 70.696 57.2955C71.2415 57.7197 71.9044 57.9318 72.6847 57.9318C73.4725 57.9318 74.1392 57.7159 74.6847 57.2841C75.2301 56.8447 75.643 56.2386 75.9233 55.4659C76.2112 54.6856 76.3551 53.7879 76.3551 52.7727C76.3551 51.7652 76.215 50.8788 75.9347 50.1136C75.6544 49.3485 75.2415 48.75 74.696 48.3182C74.1506 47.8864 73.4801 47.6705 72.6847 47.6705C71.8968 47.6705 71.2301 47.8788 70.6847 48.2955C70.1468 48.7121 69.7339 49.303 69.446 50.0682C69.1581 50.8333 69.0142 51.7348 69.0142 52.7727Z" fill="#075418"/>
<path d="M93 50C93 27.9086 110.909 10 133 10C155.091 10 173 27.9086 173 50C173 72.0914 155.091 90 133 90C110.909 90 93 72.0914 93 50Z" fill="#1E9044"/>
<path d="M132.866 58.7386C131.594 58.7386 130.46 58.5199 129.466 58.0824C128.477 57.6392 127.696 57.0312 127.122 56.2585C126.554 55.4801 126.261 54.5824 126.244 53.5653H129.96C129.983 53.9915 130.122 54.3665 130.378 54.6903C130.639 55.0085 130.986 55.2557 131.418 55.4318C131.849 55.608 132.335 55.696 132.875 55.696C133.438 55.696 133.935 55.5966 134.366 55.3977C134.798 55.1989 135.136 54.9233 135.381 54.571C135.625 54.2187 135.747 53.8125 135.747 53.3523C135.747 52.8864 135.616 52.4744 135.355 52.1165C135.099 51.7528 134.73 51.4687 134.247 51.2642C133.77 51.0597 133.202 50.9574 132.543 50.9574H130.915V48.2472H132.543C133.099 48.2472 133.591 48.1506 134.017 47.9574C134.449 47.7642 134.784 47.4972 135.023 47.1562C135.261 46.8097 135.381 46.4062 135.381 45.946C135.381 45.5085 135.276 45.125 135.065 44.7955C134.861 44.4602 134.571 44.1989 134.196 44.0114C133.827 43.8239 133.395 43.7301 132.901 43.7301C132.401 43.7301 131.943 43.821 131.528 44.0028C131.114 44.179 130.781 44.4318 130.531 44.7614C130.281 45.0909 130.148 45.4773 130.131 45.9205H126.594C126.611 44.9148 126.898 44.0284 127.455 43.2614C128.011 42.4943 128.761 41.8949 129.705 41.4631C130.653 41.0256 131.724 40.8068 132.918 40.8068C134.122 40.8068 135.176 41.0256 136.08 41.4631C136.983 41.9006 137.685 42.4915 138.185 43.2358C138.69 43.9744 138.94 44.804 138.935 45.7244C138.94 46.7017 138.636 47.517 138.023 48.1705C137.415 48.8239 136.622 49.2386 135.645 49.4148V49.5511C136.929 49.7159 137.906 50.1619 138.577 50.8892C139.253 51.6108 139.588 52.5142 139.582 53.5994C139.588 54.5938 139.301 55.4773 138.722 56.25C138.148 57.0227 137.355 57.6307 136.344 58.0739C135.332 58.517 134.173 58.7386 132.866 58.7386Z" fill="#F6F6F6"/>
<path d="M12.0227 191V167.727H16.9432V186.943H26.9205V191H12.0227ZM37.9744 191.341C36.2093 191.341 34.6828 190.966 33.3949 190.216C32.1146 189.458 31.1259 188.405 30.429 187.057C29.732 185.701 29.3835 184.129 29.3835 182.341C29.3835 180.538 29.732 178.962 30.429 177.614C31.1259 176.258 32.1146 175.205 33.3949 174.455C34.6828 173.697 36.2093 173.318 37.9744 173.318C39.7396 173.318 41.2623 173.697 42.5426 174.455C43.8305 175.205 44.8229 176.258 45.5199 177.614C46.2169 178.962 46.5653 180.538 46.5653 182.341C46.5653 184.129 46.2169 185.701 45.5199 187.057C44.8229 188.405 43.8305 189.458 42.5426 190.216C41.2623 190.966 39.7396 191.341 37.9744 191.341ZM37.9972 187.591C38.8002 187.591 39.4706 187.364 40.0085 186.909C40.5464 186.447 40.9517 185.818 41.2244 185.023C41.5047 184.227 41.6449 183.322 41.6449 182.307C41.6449 181.292 41.5047 180.386 41.2244 179.591C40.9517 178.795 40.5464 178.167 40.0085 177.705C39.4706 177.242 38.8002 177.011 37.9972 177.011C37.1866 177.011 36.5047 177.242 35.9517 177.705C35.4063 178.167 34.9934 178.795 34.7131 179.591C34.4403 180.386 34.304 181.292 34.304 182.307C34.304 183.322 34.4403 184.227 34.7131 185.023C34.9934 185.818 35.4063 186.447 35.9517 186.909C36.5047 187.364 37.1866 187.591 37.9972 187.591ZM57.5767 197.909C56.0085 197.909 54.6638 197.693 53.5426 197.261C52.429 196.837 51.5426 196.258 50.8835 195.523C50.2244 194.788 49.7964 193.962 49.5994 193.045L54.0767 192.443C54.2131 192.792 54.429 193.117 54.7244 193.42C55.0199 193.723 55.41 193.966 55.8949 194.148C56.3873 194.337 56.9858 194.432 57.6903 194.432C58.7434 194.432 59.6108 194.174 60.2926 193.659C60.982 193.152 61.3267 192.299 61.3267 191.102V187.909H61.1222C60.91 188.394 60.5919 188.852 60.1676 189.284C59.7434 189.716 59.1979 190.068 58.5312 190.341C57.8646 190.614 57.0691 190.75 56.1449 190.75C54.8343 190.75 53.6411 190.447 52.5653 189.841C51.4972 189.227 50.6449 188.292 50.0085 187.034C49.3797 185.769 49.0653 184.17 49.0653 182.239C49.0653 180.261 49.3873 178.61 50.0312 177.284C50.6752 175.958 51.5313 174.966 52.5994 174.307C53.6752 173.648 54.8532 173.318 56.1335 173.318C57.1108 173.318 57.929 173.485 58.5881 173.818C59.2472 174.144 59.7775 174.553 60.179 175.045C60.5881 175.53 60.9025 176.008 61.1222 176.477H61.304V173.545H66.1108V191.17C66.1108 192.655 65.7472 193.898 65.0199 194.898C64.2926 195.898 63.285 196.648 61.9972 197.148C60.7169 197.655 59.2434 197.909 57.5767 197.909ZM57.679 187.114C58.4593 187.114 59.1184 186.92 59.6562 186.534C60.2017 186.14 60.6184 185.58 60.9062 184.852C61.2017 184.117 61.3494 183.239 61.3494 182.216C61.3494 181.193 61.2055 180.307 60.9176 179.557C60.6297 178.799 60.2131 178.212 59.6676 177.795C59.1222 177.379 58.4593 177.17 57.679 177.17C56.8835 177.17 56.2131 177.386 55.6676 177.818C55.1222 178.242 54.7093 178.833 54.429 179.591C54.1487 180.348 54.0085 181.223 54.0085 182.216C54.0085 183.223 54.1487 184.095 54.429 184.83C54.7169 185.557 55.1297 186.121 55.6676 186.523C56.2131 186.917 56.8835 187.114 57.679 187.114ZM77.3693 191V173.545H82.2102V191H77.3693ZM79.8011 171.295C79.0814 171.295 78.464 171.057 77.9489 170.58C77.4413 170.095 77.1875 169.515 77.1875 168.841C77.1875 168.174 77.4413 167.602 77.9489 167.125C78.464 166.64 79.0814 166.398 79.8011 166.398C80.5208 166.398 81.1345 166.64 81.642 167.125C82.1572 167.602 82.4148 168.174 82.4148 168.841C82.4148 169.515 82.1572 170.095 81.642 170.58C81.1345 171.057 80.5208 171.295 79.8011 171.295ZM90.929 180.909V191H86.0881V173.545H90.7017V176.625H90.9062C91.2926 175.61 91.9403 174.807 92.8494 174.216C93.7585 173.617 94.8608 173.318 96.1562 173.318C97.3684 173.318 98.4252 173.583 99.3267 174.114C100.228 174.644 100.929 175.402 101.429 176.386C101.929 177.364 102.179 178.53 102.179 179.886V191H97.3381V180.75C97.3456 179.682 97.0729 178.848 96.5199 178.25C95.9669 177.644 95.2055 177.341 94.2358 177.341C93.5843 177.341 93.0085 177.481 92.5085 177.761C92.0161 178.042 91.6297 178.451 91.3494 178.989C91.0767 179.519 90.9366 180.159 90.929 180.909Z" fill="#075418"/>
<path d="M11.4091 224V212.364H12.8182V222.75H18.2273V224H11.4091ZM23.7727 224.182C22.9848 224.182 22.2936 223.994 21.6989 223.619C21.108 223.244 20.6458 222.72 20.3125 222.045C19.983 221.371 19.8182 220.583 19.8182 219.682C19.8182 218.773 19.983 217.979 20.3125 217.301C20.6458 216.623 21.108 216.097 21.6989 215.722C22.2936 215.347 22.9848 215.159 23.7727 215.159C24.5606 215.159 25.25 215.347 25.8409 215.722C26.4356 216.097 26.8977 216.623 27.2273 217.301C27.5606 217.979 27.7273 218.773 27.7273 219.682C27.7273 220.583 27.5606 221.371 27.2273 222.045C26.8977 222.72 26.4356 223.244 25.8409 223.619C25.25 223.994 24.5606 224.182 23.7727 224.182ZM23.7727 222.977C24.3712 222.977 24.8636 222.824 25.25 222.517C25.6364 222.21 25.9223 221.807 26.108 221.307C26.2936 220.807 26.3864 220.265 26.3864 219.682C26.3864 219.098 26.2936 218.555 26.108 218.051C25.9223 217.547 25.6364 217.14 25.25 216.83C24.8636 216.519 24.3712 216.364 23.7727 216.364C23.1742 216.364 22.6818 216.519 22.2955 216.83C21.9091 217.14 21.6231 217.547 21.4375 218.051C21.2519 218.555 21.1591 219.098 21.1591 219.682C21.1591 220.265 21.2519 220.807 21.4375 221.307C21.6231 221.807 21.9091 222.21 22.2955 222.517C22.6818 222.824 23.1742 222.977 23.7727 222.977ZM33.2969 227.455C32.6491 227.455 32.0923 227.371 31.6264 227.205C31.1605 227.042 30.7723 226.826 30.4616 226.557C30.1548 226.292 29.9105 226.008 29.7287 225.705L30.7969 224.955C30.9181 225.114 31.0715 225.295 31.2571 225.5C31.4427 225.708 31.6965 225.888 32.0185 226.04C32.3442 226.195 32.7704 226.273 33.2969 226.273C34.0014 226.273 34.5829 226.102 35.0412 225.761C35.4995 225.42 35.7287 224.886 35.7287 224.159V222.386H35.6151C35.5166 222.545 35.3764 222.742 35.1946 222.977C35.0166 223.208 34.759 223.415 34.4219 223.597C34.0885 223.775 33.6378 223.864 33.0696 223.864C32.3651 223.864 31.7325 223.697 31.1719 223.364C30.6151 223.03 30.1738 222.545 29.848 221.909C29.526 221.273 29.3651 220.5 29.3651 219.591C29.3651 218.697 29.5223 217.919 29.8366 217.256C30.151 216.589 30.5885 216.074 31.1491 215.71C31.7098 215.343 32.3575 215.159 33.0923 215.159C33.6605 215.159 34.1113 215.254 34.4446 215.443C34.7817 215.629 35.0393 215.841 35.2173 216.08C35.3991 216.314 35.5393 216.508 35.6378 216.659H35.7741V215.273H37.0696V224.25C37.0696 225 36.8991 225.61 36.5582 226.08C36.2211 226.553 35.7666 226.9 35.1946 227.119C34.6264 227.343 33.9938 227.455 33.2969 227.455ZM33.2514 222.659C33.7893 222.659 34.2438 222.536 34.6151 222.29C34.9863 222.044 35.2685 221.689 35.4616 221.227C35.6548 220.765 35.7514 220.212 35.7514 219.568C35.7514 218.939 35.6567 218.384 35.4673 217.903C35.2779 217.422 34.9976 217.045 34.6264 216.773C34.2552 216.5 33.7969 216.364 33.2514 216.364C32.6832 216.364 32.2098 216.508 31.831 216.795C31.456 217.083 31.1738 217.47 30.9844 217.955C30.7988 218.439 30.706 218.977 30.706 219.568C30.706 220.174 30.8007 220.71 30.9901 221.176C31.1832 221.638 31.4673 222.002 31.8423 222.267C32.2211 222.528 32.6908 222.659 33.2514 222.659ZM45.6151 212.364V224H44.206V212.364H45.6151ZM49.5994 218.75V224H48.2585V215.273H49.554V216.636H49.6676C49.8722 216.193 50.1828 215.837 50.5994 215.568C51.0161 215.295 51.554 215.159 52.2131 215.159C52.804 215.159 53.321 215.28 53.7642 215.523C54.2074 215.761 54.5521 216.125 54.7983 216.614C55.0445 217.098 55.1676 217.712 55.1676 218.455V224H53.8267V218.545C53.8267 217.86 53.6487 217.326 53.2926 216.943C52.9366 216.557 52.4479 216.364 51.8267 216.364C51.3987 216.364 51.0161 216.456 50.679 216.642C50.3456 216.828 50.0824 217.098 49.8892 217.455C49.696 217.811 49.5994 218.242 49.5994 218.75ZM64.0952 224L61.4361 215.273H62.8452L64.7315 221.955H64.8224L66.6861 215.273H68.1179L69.9588 221.932H70.0497L71.9361 215.273H73.3452L70.6861 224H69.3679L67.4588 217.295H67.3224L65.4134 224H64.0952ZM75.1179 224V215.273H76.4588V224H75.1179ZM75.7997 213.818C75.5384 213.818 75.313 213.729 75.1236 213.551C74.938 213.373 74.8452 213.159 74.8452 212.909C74.8452 212.659 74.938 212.445 75.1236 212.267C75.313 212.089 75.5384 212 75.7997 212C76.0611 212 76.2846 212.089 76.4702 212.267C76.6596 212.445 76.7543 212.659 76.7543 212.909C76.7543 213.159 76.6596 213.373 76.4702 213.551C76.2846 213.729 76.0611 213.818 75.7997 213.818ZM82.7102 215.273V216.409H78.1875V215.273H82.7102ZM79.5057 213.182H80.8466V221.5C80.8466 221.879 80.9015 222.163 81.0114 222.352C81.125 222.538 81.2689 222.663 81.4432 222.727C81.6212 222.788 81.8087 222.818 82.0057 222.818C82.1534 222.818 82.2746 222.811 82.3693 222.795C82.464 222.777 82.5398 222.761 82.5966 222.75L82.8693 223.955C82.7784 223.989 82.6515 224.023 82.4886 224.057C82.3258 224.095 82.1193 224.114 81.8693 224.114C81.4905 224.114 81.1193 224.032 80.7557 223.869C80.3958 223.706 80.0966 223.458 79.858 223.125C79.6231 222.792 79.5057 222.371 79.5057 221.864V213.182ZM86.2557 218.75V224H84.9148V212.364H86.2557V216.636H86.3693C86.5739 216.186 86.8807 215.828 87.2898 215.562C87.7027 215.294 88.2519 215.159 88.9375 215.159C89.5322 215.159 90.053 215.278 90.5 215.517C90.947 215.752 91.2936 216.114 91.5398 216.602C91.7898 217.087 91.9148 217.705 91.9148 218.455V224H90.5739V218.545C90.5739 217.852 90.3939 217.316 90.0341 216.938C89.678 216.555 89.1837 216.364 88.5511 216.364C88.1117 216.364 87.7178 216.456 87.3693 216.642C87.0246 216.828 86.7519 217.098 86.5511 217.455C86.3542 217.811 86.2557 218.242 86.2557 218.75ZM99.7315 227.273C99.5043 227.273 99.3016 227.254 99.1236 227.216C98.9455 227.182 98.8224 227.148 98.7543 227.114L99.0952 225.932C99.4209 226.015 99.7088 226.045 99.9588 226.023C100.209 226 100.43 225.888 100.624 225.688C100.821 225.491 101 225.17 101.163 224.727L101.413 224.045L98.1861 215.273H99.6406L102.05 222.227H102.141L104.55 215.273H106.004L102.3 225.273C102.133 225.723 101.927 226.097 101.68 226.392C101.434 226.691 101.148 226.913 100.822 227.057C100.5 227.201 100.137 227.273 99.7315 227.273ZM111.007 224.182C110.219 224.182 109.528 223.994 108.933 223.619C108.342 223.244 107.88 222.72 107.547 222.045C107.217 221.371 107.053 220.583 107.053 219.682C107.053 218.773 107.217 217.979 107.547 217.301C107.88 216.623 108.342 216.097 108.933 215.722C109.528 215.347 110.219 215.159 111.007 215.159C111.795 215.159 112.484 215.347 113.075 215.722C113.67 216.097 114.132 216.623 114.462 217.301C114.795 217.979 114.962 218.773 114.962 219.682C114.962 220.583 114.795 221.371 114.462 222.045C114.132 222.72 113.67 223.244 113.075 223.619C112.484 223.994 111.795 224.182 111.007 224.182ZM111.007 222.977C111.606 222.977 112.098 222.824 112.484 222.517C112.871 222.21 113.157 221.807 113.342 221.307C113.528 220.807 113.621 220.265 113.621 219.682C113.621 219.098 113.528 218.555 113.342 218.051C113.157 217.547 112.871 217.14 112.484 216.83C112.098 216.519 111.606 216.364 111.007 216.364C110.409 216.364 109.916 216.519 109.53 216.83C109.143 217.14 108.857 217.547 108.672 218.051C108.486 218.555 108.393 219.098 108.393 219.682C108.393 220.265 108.486 220.807 108.672 221.307C108.857 221.807 109.143 222.21 109.53 222.517C109.916 222.824 110.409 222.977 111.007 222.977ZM122.509 220.432V215.273H123.849V224H122.509V222.523H122.418C122.213 222.966 121.895 223.343 121.463 223.653C121.031 223.96 120.486 224.114 119.827 224.114C119.281 224.114 118.796 223.994 118.372 223.756C117.948 223.513 117.615 223.15 117.372 222.665C117.13 222.176 117.009 221.561 117.009 220.818V215.273H118.349V220.727C118.349 221.364 118.527 221.871 118.884 222.25C119.243 222.629 119.702 222.818 120.259 222.818C120.592 222.818 120.931 222.733 121.276 222.562C121.624 222.392 121.916 222.131 122.151 221.778C122.389 221.426 122.509 220.977 122.509 220.432ZM126.305 224V215.273H127.601V216.591H127.692C127.851 216.159 128.139 215.809 128.555 215.54C128.972 215.271 129.442 215.136 129.964 215.136C130.063 215.136 130.186 215.138 130.334 215.142C130.482 215.146 130.593 215.152 130.669 215.159V216.523C130.624 216.511 130.519 216.494 130.357 216.472C130.197 216.445 130.029 216.432 129.851 216.432C129.427 216.432 129.048 216.521 128.714 216.699C128.385 216.873 128.124 217.116 127.93 217.426C127.741 217.733 127.646 218.083 127.646 218.477V224H126.305ZM144.577 212.364H145.986V220.068C145.986 220.864 145.798 221.574 145.423 222.199C145.052 222.82 144.527 223.311 143.849 223.67C143.171 224.027 142.376 224.205 141.463 224.205C140.55 224.205 139.755 224.027 139.077 223.67C138.399 223.311 137.872 222.82 137.497 222.199C137.126 221.574 136.94 220.864 136.94 220.068V212.364H138.349V219.955C138.349 220.523 138.474 221.028 138.724 221.472C138.974 221.911 139.33 222.258 139.793 222.511C140.259 222.761 140.815 222.886 141.463 222.886C142.111 222.886 142.668 222.761 143.134 222.511C143.599 222.258 143.955 221.911 144.202 221.472C144.452 221.028 144.577 220.523 144.577 219.955V212.364ZM154.8 217.227L153.595 217.568C153.519 217.367 153.408 217.172 153.26 216.983C153.116 216.79 152.919 216.631 152.669 216.506C152.419 216.381 152.099 216.318 151.709 216.318C151.175 216.318 150.73 216.441 150.374 216.688C150.021 216.93 149.845 217.239 149.845 217.614C149.845 217.947 149.966 218.21 150.209 218.403C150.451 218.597 150.83 218.758 151.345 218.886L152.641 219.205C153.421 219.394 154.002 219.684 154.385 220.074C154.768 220.46 154.959 220.958 154.959 221.568C154.959 222.068 154.815 222.515 154.527 222.909C154.243 223.303 153.845 223.614 153.334 223.841C152.822 224.068 152.228 224.182 151.55 224.182C150.66 224.182 149.923 223.989 149.339 223.602C148.756 223.216 148.387 222.652 148.232 221.909L149.504 221.591C149.625 222.061 149.855 222.413 150.192 222.648C150.533 222.883 150.978 223 151.527 223C152.152 223 152.648 222.867 153.016 222.602C153.387 222.333 153.572 222.011 153.572 221.636C153.572 221.333 153.466 221.08 153.254 220.875C153.042 220.667 152.716 220.511 152.277 220.409L150.822 220.068C150.023 219.879 149.436 219.585 149.061 219.188C148.69 218.786 148.504 218.284 148.504 217.682C148.504 217.189 148.643 216.754 148.919 216.375C149.199 215.996 149.58 215.699 150.061 215.483C150.546 215.267 151.095 215.159 151.709 215.159C152.572 215.159 153.25 215.348 153.743 215.727C154.239 216.106 154.591 216.606 154.8 217.227ZM160.636 224.182C159.795 224.182 159.07 223.996 158.46 223.625C157.854 223.25 157.386 222.727 157.057 222.057C156.731 221.383 156.568 220.598 156.568 219.705C156.568 218.811 156.731 218.023 157.057 217.341C157.386 216.655 157.845 216.121 158.432 215.739C159.023 215.352 159.712 215.159 160.5 215.159C160.955 215.159 161.403 215.235 161.847 215.386C162.29 215.538 162.693 215.784 163.057 216.125C163.42 216.462 163.71 216.909 163.926 217.466C164.142 218.023 164.25 218.708 164.25 219.523V220.091H157.523V218.932H162.886C162.886 218.439 162.788 218 162.591 217.614C162.398 217.227 162.121 216.922 161.761 216.699C161.405 216.475 160.985 216.364 160.5 216.364C159.966 216.364 159.504 216.496 159.114 216.761C158.727 217.023 158.43 217.364 158.222 217.784C158.013 218.205 157.909 218.655 157.909 219.136V219.909C157.909 220.568 158.023 221.127 158.25 221.585C158.481 222.04 158.801 222.386 159.21 222.625C159.619 222.86 160.095 222.977 160.636 222.977C160.989 222.977 161.307 222.928 161.591 222.83C161.879 222.727 162.127 222.576 162.335 222.375C162.544 222.17 162.705 221.917 162.818 221.614L164.114 221.977C163.977 222.417 163.748 222.803 163.426 223.136C163.104 223.466 162.706 223.723 162.233 223.909C161.759 224.091 161.227 224.182 160.636 224.182ZM166.29 224V215.273H167.585V216.591H167.676C167.835 216.159 168.123 215.809 168.54 215.54C168.956 215.271 169.426 215.136 169.949 215.136C170.047 215.136 170.17 215.138 170.318 215.142C170.466 215.146 170.578 215.152 170.653 215.159V216.523C170.608 216.511 170.504 216.494 170.341 216.472C170.182 216.445 170.013 216.432 169.835 216.432C169.411 216.432 169.032 216.521 168.699 216.699C168.369 216.873 168.108 217.116 167.915 217.426C167.725 217.733 167.631 218.083 167.631 218.477V224H166.29ZM186.152 212.364V224H184.788L178.447 214.864H178.334V224H176.925V212.364H178.288L184.652 221.523H184.766V212.364H186.152ZM191.358 224.205C190.805 224.205 190.303 224.1 189.852 223.892C189.402 223.68 189.044 223.375 188.778 222.977C188.513 222.576 188.381 222.091 188.381 221.523C188.381 221.023 188.479 220.617 188.676 220.307C188.873 219.992 189.136 219.746 189.466 219.568C189.795 219.39 190.159 219.258 190.557 219.17C190.958 219.08 191.362 219.008 191.767 218.955C192.297 218.886 192.727 218.835 193.057 218.801C193.39 218.763 193.633 218.701 193.784 218.614C193.939 218.527 194.017 218.375 194.017 218.159V218.114C194.017 217.553 193.864 217.117 193.557 216.807C193.254 216.496 192.794 216.341 192.176 216.341C191.536 216.341 191.034 216.481 190.67 216.761C190.307 217.042 190.051 217.341 189.903 217.659L188.631 217.205C188.858 216.674 189.161 216.261 189.54 215.966C189.922 215.667 190.339 215.458 190.79 215.341C191.244 215.22 191.691 215.159 192.131 215.159C192.411 215.159 192.733 215.193 193.097 215.261C193.464 215.326 193.818 215.46 194.159 215.665C194.504 215.869 194.79 216.178 195.017 216.591C195.244 217.004 195.358 217.557 195.358 218.25V224H194.017V222.818H193.949C193.858 223.008 193.706 223.21 193.494 223.426C193.282 223.642 193 223.826 192.648 223.977C192.295 224.129 191.866 224.205 191.358 224.205ZM191.562 223C192.093 223 192.54 222.896 192.903 222.688C193.271 222.479 193.547 222.21 193.733 221.881C193.922 221.551 194.017 221.205 194.017 220.841V219.614C193.96 219.682 193.835 219.744 193.642 219.801C193.453 219.854 193.233 219.902 192.983 219.943C192.737 219.981 192.496 220.015 192.261 220.045C192.03 220.072 191.843 220.095 191.699 220.114C191.35 220.159 191.025 220.233 190.722 220.335C190.422 220.434 190.18 220.583 189.994 220.784C189.813 220.981 189.722 221.25 189.722 221.591C189.722 222.057 189.894 222.409 190.239 222.648C190.587 222.883 191.028 223 191.562 223ZM197.805 224V215.273H199.101V216.636H199.214C199.396 216.17 199.69 215.809 200.095 215.551C200.5 215.29 200.987 215.159 201.555 215.159C202.131 215.159 202.61 215.29 202.993 215.551C203.379 215.809 203.68 216.17 203.896 216.636H203.987C204.211 216.186 204.546 215.828 204.993 215.562C205.44 215.294 205.976 215.159 206.601 215.159C207.381 215.159 208.019 215.403 208.516 215.892C209.012 216.377 209.26 217.133 209.26 218.159V224H207.919V218.159C207.919 217.515 207.743 217.055 207.391 216.778C207.038 216.502 206.624 216.364 206.146 216.364C205.533 216.364 205.057 216.549 204.72 216.92C204.383 217.288 204.214 217.754 204.214 218.318V224H202.851V218.023C202.851 217.527 202.69 217.127 202.368 216.824C202.046 216.517 201.631 216.364 201.124 216.364C200.775 216.364 200.449 216.456 200.146 216.642C199.847 216.828 199.605 217.085 199.419 217.415C199.237 217.741 199.146 218.117 199.146 218.545V224H197.805ZM215.371 224.182C214.53 224.182 213.804 223.996 213.195 223.625C212.589 223.25 212.121 222.727 211.791 222.057C211.465 221.383 211.303 220.598 211.303 219.705C211.303 218.811 211.465 218.023 211.791 217.341C212.121 216.655 212.579 216.121 213.166 215.739C213.757 215.352 214.446 215.159 215.234 215.159C215.689 215.159 216.138 215.235 216.581 215.386C217.024 215.538 217.428 215.784 217.791 216.125C218.155 216.462 218.445 216.909 218.661 217.466C218.876 218.023 218.984 218.708 218.984 219.523V220.091H212.257V218.932H217.621C217.621 218.439 217.522 218 217.325 217.614C217.132 217.227 216.856 216.922 216.496 216.699C216.14 216.475 215.719 216.364 215.234 216.364C214.7 216.364 214.238 216.496 213.848 216.761C213.462 217.023 213.164 217.364 212.956 217.784C212.748 218.205 212.643 218.655 212.643 219.136V219.909C212.643 220.568 212.757 221.127 212.984 221.585C213.215 222.04 213.536 222.386 213.945 222.625C214.354 222.86 214.829 222.977 215.371 222.977C215.723 222.977 216.041 222.928 216.325 222.83C216.613 222.727 216.861 222.576 217.07 222.375C217.278 222.17 217.439 221.917 217.553 221.614L218.848 221.977C218.712 222.417 218.482 222.803 218.161 223.136C217.839 223.466 217.441 223.723 216.967 223.909C216.494 224.091 215.962 224.182 215.371 224.182ZM228.092 224.205C227.539 224.205 227.037 224.1 226.587 223.892C226.136 223.68 225.778 223.375 225.513 222.977C225.248 222.576 225.115 222.091 225.115 221.523C225.115 221.023 225.214 220.617 225.411 220.307C225.607 219.992 225.871 219.746 226.2 219.568C226.53 219.39 226.893 219.258 227.291 219.17C227.693 219.08 228.096 219.008 228.501 218.955C229.032 218.886 229.462 218.835 229.791 218.801C230.125 218.763 230.367 218.701 230.518 218.614C230.674 218.527 230.751 218.375 230.751 218.159V218.114C230.751 217.553 230.598 217.117 230.291 216.807C229.988 216.496 229.528 216.341 228.911 216.341C228.27 216.341 227.768 216.481 227.405 216.761C227.041 217.042 226.786 217.341 226.638 217.659L225.365 217.205C225.592 216.674 225.895 216.261 226.274 215.966C226.657 215.667 227.073 215.458 227.524 215.341C227.979 215.22 228.426 215.159 228.865 215.159C229.145 215.159 229.467 215.193 229.831 215.261C230.198 215.326 230.553 215.46 230.893 215.665C231.238 215.869 231.524 216.178 231.751 216.591C231.979 217.004 232.092 217.557 232.092 218.25V224H230.751V222.818H230.683C230.592 223.008 230.441 223.21 230.229 223.426C230.017 223.642 229.734 223.826 229.382 223.977C229.03 224.129 228.6 224.205 228.092 224.205ZM228.297 223C228.827 223 229.274 222.896 229.638 222.688C230.005 222.479 230.282 222.21 230.467 221.881C230.657 221.551 230.751 221.205 230.751 220.841V219.614C230.695 219.682 230.57 219.744 230.376 219.801C230.187 219.854 229.967 219.902 229.717 219.943C229.471 219.981 229.231 220.015 228.996 220.045C228.765 220.072 228.577 220.095 228.433 220.114C228.085 220.159 227.759 220.233 227.456 220.335C227.157 220.434 226.914 220.583 226.729 220.784C226.547 220.981 226.456 221.25 226.456 221.591C226.456 222.057 226.628 222.409 226.973 222.648C227.321 222.883 227.763 223 228.297 223ZM235.881 218.75V224H234.54V215.273H235.835V216.636H235.949C236.153 216.193 236.464 215.837 236.881 215.568C237.297 215.295 237.835 215.159 238.494 215.159C239.085 215.159 239.602 215.28 240.045 215.523C240.489 215.761 240.833 216.125 241.08 216.614C241.326 217.098 241.449 217.712 241.449 218.455V224H240.108V218.545C240.108 217.86 239.93 217.326 239.574 216.943C239.218 216.557 238.729 216.364 238.108 216.364C237.68 216.364 237.297 216.456 236.96 216.642C236.627 216.828 236.364 217.098 236.17 217.455C235.977 217.811 235.881 218.242 235.881 218.75ZM247.195 224.182C246.467 224.182 245.825 223.998 245.268 223.631C244.712 223.259 244.276 222.737 243.962 222.062C243.647 221.384 243.49 220.583 243.49 219.659C243.49 218.742 243.647 217.947 243.962 217.273C244.276 216.598 244.714 216.078 245.274 215.71C245.835 215.343 246.482 215.159 247.217 215.159C247.786 215.159 248.234 215.254 248.564 215.443C248.897 215.629 249.151 215.841 249.325 216.08C249.503 216.314 249.642 216.508 249.74 216.659H249.854V212.364H251.195V224H249.899V222.659H249.74C249.642 222.818 249.501 223.019 249.32 223.261C249.138 223.5 248.878 223.714 248.541 223.903C248.204 224.089 247.755 224.182 247.195 224.182ZM247.376 222.977C247.914 222.977 248.369 222.837 248.74 222.557C249.111 222.273 249.393 221.881 249.587 221.381C249.78 220.877 249.876 220.295 249.876 219.636C249.876 218.985 249.782 218.415 249.592 217.926C249.403 217.434 249.123 217.051 248.751 216.778C248.38 216.502 247.922 216.364 247.376 216.364C246.808 216.364 246.335 216.509 245.956 216.801C245.581 217.089 245.299 217.481 245.109 217.977C244.924 218.47 244.831 219.023 244.831 219.636C244.831 220.258 244.926 220.822 245.115 221.33C245.308 221.833 245.592 222.235 245.967 222.534C246.346 222.83 246.816 222.977 247.376 222.977ZM258.518 224V212.364H262.45C263.363 212.364 264.109 212.528 264.689 212.858C265.272 213.184 265.704 213.625 265.984 214.182C266.265 214.739 266.405 215.36 266.405 216.045C266.405 216.731 266.265 217.354 265.984 217.915C265.708 218.475 265.28 218.922 264.7 219.256C264.121 219.585 263.378 219.75 262.473 219.75H259.655V218.5H262.428C263.053 218.5 263.554 218.392 263.933 218.176C264.312 217.96 264.587 217.669 264.757 217.301C264.931 216.93 265.018 216.511 265.018 216.045C265.018 215.58 264.931 215.163 264.757 214.795C264.587 214.428 264.31 214.14 263.928 213.932C263.545 213.72 263.037 213.614 262.405 213.614H259.928V224H258.518ZM271.061 224.205C270.508 224.205 270.006 224.1 269.555 223.892C269.105 223.68 268.747 223.375 268.482 222.977C268.216 222.576 268.084 222.091 268.084 221.523C268.084 221.023 268.182 220.617 268.379 220.307C268.576 219.992 268.839 219.746 269.169 219.568C269.499 219.39 269.862 219.258 270.26 219.17C270.661 219.08 271.065 219.008 271.47 218.955C272 218.886 272.43 218.835 272.76 218.801C273.093 218.763 273.336 218.701 273.487 218.614C273.643 218.527 273.72 218.375 273.72 218.159V218.114C273.72 217.553 273.567 217.117 273.26 216.807C272.957 216.496 272.497 216.341 271.879 216.341C271.239 216.341 270.737 216.481 270.374 216.761C270.01 217.042 269.754 217.341 269.607 217.659L268.334 217.205C268.561 216.674 268.864 216.261 269.243 215.966C269.625 215.667 270.042 215.458 270.493 215.341C270.947 215.22 271.394 215.159 271.834 215.159C272.114 215.159 272.436 215.193 272.8 215.261C273.167 215.326 273.521 215.46 273.862 215.665C274.207 215.869 274.493 216.178 274.72 216.591C274.947 217.004 275.061 217.557 275.061 218.25V224H273.72V222.818H273.652C273.561 223.008 273.41 223.21 273.197 223.426C272.985 223.642 272.703 223.826 272.351 223.977C271.999 224.129 271.569 224.205 271.061 224.205ZM271.266 223C271.796 223 272.243 222.896 272.607 222.688C272.974 222.479 273.25 222.21 273.436 221.881C273.625 221.551 273.72 221.205 273.72 220.841V219.614C273.663 219.682 273.538 219.744 273.345 219.801C273.156 219.854 272.936 219.902 272.686 219.943C272.44 219.981 272.199 220.015 271.964 220.045C271.733 220.072 271.546 220.095 271.402 220.114C271.054 220.159 270.728 220.233 270.425 220.335C270.125 220.434 269.883 220.583 269.697 220.784C269.516 220.981 269.425 221.25 269.425 221.591C269.425 222.057 269.597 222.409 269.942 222.648C270.29 222.883 270.732 223 271.266 223ZM283.69 217.227L282.486 217.568C282.41 217.367 282.298 217.172 282.151 216.983C282.007 216.79 281.81 216.631 281.56 216.506C281.31 216.381 280.99 216.318 280.599 216.318C280.065 216.318 279.62 216.441 279.264 216.688C278.912 216.93 278.736 217.239 278.736 217.614C278.736 217.947 278.857 218.21 279.099 218.403C279.342 218.597 279.721 218.758 280.236 218.886L281.531 219.205C282.312 219.394 282.893 219.684 283.276 220.074C283.658 220.46 283.849 220.958 283.849 221.568C283.849 222.068 283.705 222.515 283.418 222.909C283.134 223.303 282.736 223.614 282.224 223.841C281.713 224.068 281.118 224.182 280.44 224.182C279.55 224.182 278.813 223.989 278.23 223.602C277.647 223.216 277.277 222.652 277.122 221.909L278.395 221.591C278.516 222.061 278.745 222.413 279.082 222.648C279.423 222.883 279.868 223 280.418 223C281.043 223 281.539 222.867 281.906 222.602C282.277 222.333 282.463 222.011 282.463 221.636C282.463 221.333 282.357 221.08 282.145 220.875C281.933 220.667 281.607 220.511 281.168 220.409L279.713 220.068C278.914 219.879 278.327 219.585 277.952 219.188C277.58 218.786 277.395 218.284 277.395 217.682C277.395 217.189 277.533 216.754 277.81 216.375C278.09 215.996 278.471 215.699 278.952 215.483C279.437 215.267 279.986 215.159 280.599 215.159C281.463 215.159 282.141 215.348 282.634 215.727C283.13 216.106 283.482 216.606 283.69 217.227ZM292.05 217.227L290.845 217.568C290.769 217.367 290.658 217.172 290.51 216.983C290.366 216.79 290.169 216.631 289.919 216.506C289.669 216.381 289.349 216.318 288.959 216.318C288.425 216.318 287.98 216.441 287.624 216.688C287.271 216.93 287.095 217.239 287.095 217.614C287.095 217.947 287.216 218.21 287.459 218.403C287.701 218.597 288.08 218.758 288.595 218.886L289.891 219.205C290.671 219.394 291.252 219.684 291.635 220.074C292.018 220.46 292.209 220.958 292.209 221.568C292.209 222.068 292.065 222.515 291.777 222.909C291.493 223.303 291.095 223.614 290.584 223.841C290.072 224.068 289.478 224.182 288.8 224.182C287.91 224.182 287.173 223.989 286.589 223.602C286.006 223.216 285.637 222.652 285.482 221.909L286.754 221.591C286.875 222.061 287.105 222.413 287.442 222.648C287.783 222.883 288.228 223 288.777 223C289.402 223 289.898 222.867 290.266 222.602C290.637 222.333 290.822 222.011 290.822 221.636C290.822 221.333 290.716 221.08 290.504 220.875C290.292 220.667 289.966 220.511 289.527 220.409L288.072 220.068C287.273 219.879 286.686 219.585 286.311 219.188C285.94 218.786 285.754 218.284 285.754 217.682C285.754 217.189 285.893 216.754 286.169 216.375C286.449 215.996 286.83 215.699 287.311 215.483C287.796 215.267 288.345 215.159 288.959 215.159C289.822 215.159 290.5 215.348 290.993 215.727C291.489 216.106 291.841 216.606 292.05 217.227ZM300.705 224L298.045 215.273H299.455L301.341 221.955H301.432L303.295 215.273H304.727L306.568 221.932H306.659L308.545 215.273H309.955L307.295 224H305.977L304.068 217.295H303.932L302.023 224H300.705ZM314.976 224.182C314.188 224.182 313.497 223.994 312.902 223.619C312.311 223.244 311.849 222.72 311.516 222.045C311.186 221.371 311.021 220.583 311.021 219.682C311.021 218.773 311.186 217.979 311.516 217.301C311.849 216.623 312.311 216.097 312.902 215.722C313.497 215.347 314.188 215.159 314.976 215.159C315.764 215.159 316.453 215.347 317.044 215.722C317.639 216.097 318.101 216.623 318.43 217.301C318.764 217.979 318.93 218.773 318.93 219.682C318.93 220.583 318.764 221.371 318.43 222.045C318.101 222.72 317.639 223.244 317.044 223.619C316.453 223.994 315.764 224.182 314.976 224.182ZM314.976 222.977C315.574 222.977 316.067 222.824 316.453 222.517C316.839 222.21 317.125 221.807 317.311 221.307C317.497 220.807 317.589 220.265 317.589 219.682C317.589 219.098 317.497 218.555 317.311 218.051C317.125 217.547 316.839 217.14 316.453 216.83C316.067 216.519 315.574 216.364 314.976 216.364C314.377 216.364 313.885 216.519 313.499 216.83C313.112 217.14 312.826 217.547 312.641 218.051C312.455 218.555 312.362 219.098 312.362 219.682C312.362 220.265 312.455 220.807 312.641 221.307C312.826 221.807 313.112 222.21 313.499 222.517C313.885 222.824 314.377 222.977 314.976 222.977ZM320.977 224V215.273H322.273V216.591H322.364C322.523 216.159 322.811 215.809 323.227 215.54C323.644 215.271 324.114 215.136 324.636 215.136C324.735 215.136 324.858 215.138 325.006 215.142C325.153 215.146 325.265 215.152 325.341 215.159V216.523C325.295 216.511 325.191 216.494 325.028 216.472C324.869 216.445 324.701 216.432 324.523 216.432C324.098 216.432 323.72 216.521 323.386 216.699C323.057 216.873 322.795 217.116 322.602 217.426C322.413 217.733 322.318 218.083 322.318 218.477V224H320.977ZM329.96 224.182C329.233 224.182 328.591 223.998 328.034 223.631C327.477 223.259 327.042 222.737 326.727 222.062C326.413 221.384 326.256 220.583 326.256 219.659C326.256 218.742 326.413 217.947 326.727 217.273C327.042 216.598 327.479 216.078 328.04 215.71C328.6 215.343 329.248 215.159 329.983 215.159C330.551 215.159 331 215.254 331.33 215.443C331.663 215.629 331.917 215.841 332.091 216.08C332.269 216.314 332.407 216.508 332.506 216.659H332.619V212.364H333.96V224H332.665V222.659H332.506C332.407 222.818 332.267 223.019 332.085 223.261C331.903 223.5 331.644 223.714 331.307 223.903C330.97 224.089 330.521 224.182 329.96 224.182ZM330.142 222.977C330.68 222.977 331.134 222.837 331.506 222.557C331.877 222.273 332.159 221.881 332.352 221.381C332.545 220.877 332.642 220.295 332.642 219.636C332.642 218.985 332.547 218.415 332.358 217.926C332.169 217.434 331.888 217.051 331.517 216.778C331.146 216.502 330.688 216.364 330.142 216.364C329.574 216.364 329.1 216.509 328.722 216.801C328.347 217.089 328.064 217.481 327.875 217.977C327.689 218.47 327.597 219.023 327.597 219.636C327.597 220.258 327.691 220.822 327.881 221.33C328.074 221.833 328.358 222.235 328.733 222.534C329.112 222.83 329.581 222.977 330.142 222.977Z" fill="#898585"/>
</svg>
