<svg width="385" height="332" viewBox="0 0 385 332" fill="none" xmlns="http://www.w3.org/2000/svg">
<rect x="0.5" y="0.5" width="384" height="331" rx="14.5" fill="white"/>
<rect x="0.5" y="0.5" width="384" height="331" rx="14.5" stroke="#075418"/>
<path d="M24.6477 44.9205C24.5568 44.0038 24.1667 43.2917 23.4773 42.7841C22.7879 42.2765 21.8523 42.0227 20.6705 42.0227C19.8674 42.0227 19.1894 42.1364 18.6364 42.3636C18.0833 42.5833 17.6591 42.8902 17.3636 43.2841C17.0758 43.678 16.9318 44.125 16.9318 44.625C16.9167 45.0417 17.0038 45.4053 17.1932 45.7159C17.3902 46.0265 17.6591 46.2955 18 46.5227C18.3409 46.7424 18.7348 46.9356 19.1818 47.1023C19.6288 47.2614 20.1061 47.3977 20.6136 47.5114L22.7045 48.0114C23.7197 48.2386 24.6515 48.5417 25.5 48.9205C26.3485 49.2992 27.0833 49.7652 27.7045 50.3182C28.3258 50.8712 28.8068 51.5227 29.1477 52.2727C29.4962 53.0227 29.6742 53.8826 29.6818 54.8523C29.6742 56.2765 29.3106 57.5114 28.5909 58.5568C27.8788 59.5947 26.8485 60.4015 25.5 60.9773C24.1591 61.5455 22.5417 61.8295 20.6477 61.8295C18.7689 61.8295 17.1326 61.5417 15.7386 60.9659C14.3523 60.3902 13.2689 59.5379 12.4886 58.4091C11.7159 57.2727 11.3106 55.8674 11.2727 54.1932H16.0341C16.0871 54.9735 16.3106 55.625 16.7045 56.1477C17.1061 56.6629 17.6402 57.053 18.3068 57.3182C18.9811 57.5758 19.7424 57.7045 20.5909 57.7045C21.4242 57.7045 22.1477 57.5833 22.7614 57.3409C23.3826 57.0985 23.8636 56.7614 24.2045 56.3295C24.5455 55.8977 24.7159 55.4015 24.7159 54.8409C24.7159 54.3182 24.5606 53.8788 24.25 53.5227C23.947 53.1667 23.5 52.8636 22.9091 52.6136C22.3258 52.3636 21.6098 52.1364 20.7614 51.9318L18.2273 51.2955C16.2652 50.8182 14.7159 50.072 13.5795 49.0568C12.4432 48.0417 11.8788 46.6742 11.8864 44.9545C11.8788 43.5455 12.2538 42.3144 13.0114 41.2614C13.7765 40.2083 14.8258 39.3864 16.1591 38.7955C17.4924 38.2045 19.0076 37.9091 20.7045 37.9091C22.4318 37.9091 23.9394 38.2045 25.2273 38.7955C26.5227 39.3864 27.5303 40.2083 28.25 41.2614C28.9697 42.3144 29.3409 43.5341 29.3636 44.9205H24.6477ZM42.1847 44.0455V47.6818H31.6733V44.0455H42.1847ZM34.0597 39.8636H38.9006V56.1364C38.9006 56.5833 38.9688 56.9318 39.1051 57.1818C39.2415 57.4242 39.4309 57.5947 39.6733 57.6932C39.9233 57.7917 40.2112 57.8409 40.5369 57.8409C40.7642 57.8409 40.9915 57.822 41.2188 57.7841C41.446 57.7386 41.6203 57.7045 41.7415 57.6818L42.5028 61.2841C42.2604 61.3598 41.9195 61.447 41.4801 61.5455C41.0407 61.6515 40.5066 61.7159 39.8778 61.7386C38.7112 61.7841 37.6884 61.6288 36.8097 61.2727C35.9384 60.9167 35.2604 60.3636 34.7756 59.6136C34.2907 58.8636 34.0521 57.9167 34.0597 56.7727V39.8636ZM53.1051 61.8409C51.3097 61.8409 49.7642 61.4773 48.4688 60.75C47.1809 60.0152 46.1884 58.9773 45.4915 57.6364C44.7945 56.2879 44.446 54.6932 44.446 52.8523C44.446 51.0568 44.7945 49.4811 45.4915 48.125C46.1884 46.7689 47.1695 45.7121 48.4347 44.9545C49.7074 44.197 51.1998 43.8182 52.9119 43.8182C54.0634 43.8182 55.1354 44.0038 56.1278 44.375C57.1278 44.7386 57.9991 45.2879 58.7415 46.0227C59.4915 46.7576 60.0748 47.6818 60.4915 48.7955C60.9081 49.9015 61.1165 51.197 61.1165 52.6818V54.0114H46.3778V51.0114H56.5597C56.5597 50.3144 56.4081 49.697 56.1051 49.1591C55.8021 48.6212 55.3816 48.2008 54.8438 47.8977C54.3134 47.5871 53.696 47.4318 52.9915 47.4318C52.2566 47.4318 51.6051 47.6023 51.0369 47.9432C50.4763 48.2765 50.0369 48.7273 49.7188 49.2955C49.4006 49.8561 49.2377 50.4811 49.2301 51.1705V54.0227C49.2301 54.8864 49.3892 55.6326 49.7074 56.2614C50.0331 56.8902 50.4915 57.375 51.0824 57.7159C51.6733 58.0568 52.3741 58.2273 53.1847 58.2273C53.7225 58.2273 54.215 58.1515 54.6619 58C55.1089 57.8485 55.4915 57.6212 55.8097 57.3182C56.1278 57.0152 56.3703 56.6439 56.5369 56.2045L61.0142 56.5C60.7869 57.5758 60.321 58.5152 59.6165 59.3182C58.9195 60.1136 58.018 60.7348 56.9119 61.1818C55.8134 61.6212 54.5445 61.8409 53.1051 61.8409ZM64.2756 68.0455V44.0455H69.0483V46.9773H69.2642C69.4763 46.5076 69.7831 46.0303 70.1847 45.5455C70.5938 45.053 71.1241 44.6439 71.7756 44.3182C72.4347 43.9848 73.2528 43.8182 74.2301 43.8182C75.5028 43.8182 76.6771 44.1515 77.7528 44.8182C78.8286 45.4773 79.6884 46.4735 80.3324 47.8068C80.9763 49.1326 81.2983 50.7955 81.2983 52.7955C81.2983 54.7424 80.9839 56.3864 80.3551 57.7273C79.7339 59.0606 78.8854 60.072 77.8097 60.7614C76.7415 61.4432 75.5445 61.7841 74.2188 61.7841C73.2794 61.7841 72.4801 61.6288 71.821 61.3182C71.1695 61.0076 70.6354 60.6174 70.2188 60.1477C69.8021 59.6705 69.4839 59.1894 69.2642 58.7045H69.1165V68.0455H64.2756ZM69.0142 52.7727C69.0142 53.8106 69.1581 54.7159 69.446 55.4886C69.7339 56.2614 70.1506 56.8636 70.696 57.2955C71.2415 57.7197 71.9044 57.9318 72.6847 57.9318C73.4725 57.9318 74.1392 57.7159 74.6847 57.2841C75.2301 56.8447 75.643 56.2386 75.9233 55.4659C76.2112 54.6856 76.3551 53.7879 76.3551 52.7727C76.3551 51.7652 76.215 50.8788 75.9347 50.1136C75.6544 49.3485 75.2415 48.75 74.696 48.3182C74.1506 47.8864 73.4801 47.6705 72.6847 47.6705C71.8968 47.6705 71.2301 47.8788 70.6847 48.2955C70.1468 48.7121 69.7339 49.303 69.446 50.0682C69.1581 50.8333 69.0142 51.7348 69.0142 52.7727Z" fill="#075418"/>
<path d="M93 50C93 27.9086 110.909 10 133 10C155.091 10 173 27.9086 173 50C173 72.0914 155.091 90 133 90C110.909 90 93 72.0914 93 50Z" fill="#1E9044"/>
<path d="M136.009 41.0455V58.5H132.318V44.5483H132.216L128.219 47.054V43.7812L132.54 41.0455H136.009Z" fill="#F6F6F6"/>
<path d="M32.5568 175.875H27.5795C27.4886 175.231 27.303 174.659 27.0227 174.159C26.7424 173.652 26.3826 173.22 25.9432 172.864C25.5038 172.508 24.9962 172.235 24.4205 172.045C23.8523 171.856 23.2348 171.761 22.5682 171.761C21.3636 171.761 20.3144 172.061 19.4205 172.659C18.5265 173.25 17.8333 174.114 17.3409 175.25C16.8485 176.379 16.6023 177.75 16.6023 179.364C16.6023 181.023 16.8485 182.417 17.3409 183.545C17.8409 184.674 18.5379 185.527 19.4318 186.102C20.3258 186.678 21.3598 186.966 22.5341 186.966C23.1932 186.966 23.803 186.879 24.3636 186.705C24.9318 186.53 25.4356 186.277 25.875 185.943C26.3144 185.602 26.678 185.189 26.9659 184.705C27.2614 184.22 27.4659 183.667 27.5795 183.045L32.5568 183.068C32.428 184.136 32.1061 185.167 31.5909 186.159C31.0833 187.144 30.3977 188.027 29.5341 188.807C28.678 189.58 27.6553 190.193 26.4659 190.648C25.2841 191.095 23.947 191.318 22.4545 191.318C20.3788 191.318 18.5227 190.848 16.8864 189.909C15.2576 188.97 13.9697 187.61 13.0227 185.83C12.0833 184.049 11.6136 181.894 11.6136 179.364C11.6136 176.826 12.0909 174.667 13.0455 172.886C14 171.106 15.2955 169.75 16.9318 168.818C18.5682 167.879 20.4091 167.409 22.4545 167.409C23.803 167.409 25.053 167.598 26.2045 167.977C27.3636 168.356 28.3902 168.909 29.2841 169.636C30.178 170.356 30.9053 171.239 31.4659 172.284C32.0341 173.33 32.3977 174.527 32.5568 175.875ZM40.8352 167.727V191H35.9943V167.727H40.8352ZM44.7131 191V173.545H49.554V191H44.7131ZM47.1449 171.295C46.4252 171.295 45.8078 171.057 45.2926 170.58C44.785 170.095 44.5312 169.515 44.5312 168.841C44.5312 168.174 44.785 167.602 45.2926 167.125C45.8078 166.64 46.4252 166.398 47.1449 166.398C47.8646 166.398 48.4782 166.64 48.9858 167.125C49.5009 167.602 49.7585 168.174 49.7585 168.841C49.7585 169.515 49.5009 170.095 48.9858 170.58C48.4782 171.057 47.8646 171.295 47.1449 171.295ZM61.3182 191.341C59.5303 191.341 57.9924 190.962 56.7045 190.205C55.4242 189.439 54.4394 188.379 53.75 187.023C53.0682 185.667 52.7273 184.106 52.7273 182.341C52.7273 180.553 53.072 178.985 53.7614 177.636C54.4583 176.28 55.447 175.223 56.7273 174.466C58.0076 173.701 59.5303 173.318 61.2955 173.318C62.8182 173.318 64.1515 173.595 65.2955 174.148C66.4394 174.701 67.3447 175.477 68.0114 176.477C68.678 177.477 69.0455 178.652 69.1136 180H64.5455C64.4167 179.129 64.0758 178.428 63.5227 177.898C62.9773 177.36 62.2614 177.091 61.375 177.091C60.625 177.091 59.9697 177.295 59.4091 177.705C58.8561 178.106 58.4242 178.693 58.1136 179.466C57.803 180.239 57.6477 181.174 57.6477 182.273C57.6477 183.386 57.7992 184.333 58.1023 185.114C58.4129 185.894 58.8485 186.489 59.4091 186.898C59.9697 187.307 60.625 187.511 61.375 187.511C61.928 187.511 62.4242 187.398 62.8636 187.17C63.3106 186.943 63.678 186.614 63.9659 186.182C64.2614 185.742 64.4545 185.216 64.5455 184.602H69.1136C69.0379 185.936 68.6742 187.11 68.0227 188.125C67.3788 189.133 66.4886 189.92 65.3523 190.489C64.2159 191.057 62.8712 191.341 61.3182 191.341ZM76.5994 185.977L76.6108 180.17H77.3153L82.9062 173.545H88.4631L80.9517 182.318H79.804L76.5994 185.977ZM72.2131 191V167.727H77.054V191H72.2131ZM83.1222 191L77.9858 183.398L81.2131 179.977L88.7926 191H83.1222ZM106.131 191.341C104.366 191.341 102.839 190.966 101.551 190.216C100.271 189.458 99.2822 188.405 98.5852 187.057C97.8883 185.701 97.5398 184.129 97.5398 182.341C97.5398 180.538 97.8883 178.962 98.5852 177.614C99.2822 176.258 100.271 175.205 101.551 174.455C102.839 173.697 104.366 173.318 106.131 173.318C107.896 173.318 109.419 173.697 110.699 174.455C111.987 175.205 112.979 176.258 113.676 177.614C114.373 178.962 114.722 180.538 114.722 182.341C114.722 184.129 114.373 185.701 113.676 187.057C112.979 188.405 111.987 189.458 110.699 190.216C109.419 190.966 107.896 191.341 106.131 191.341ZM106.153 187.591C106.956 187.591 107.627 187.364 108.165 186.909C108.703 186.447 109.108 185.818 109.381 185.023C109.661 184.227 109.801 183.322 109.801 182.307C109.801 181.292 109.661 180.386 109.381 179.591C109.108 178.795 108.703 178.167 108.165 177.705C107.627 177.242 106.956 177.011 106.153 177.011C105.343 177.011 104.661 177.242 104.108 177.705C103.563 178.167 103.15 178.795 102.869 179.591C102.597 180.386 102.46 181.292 102.46 182.307C102.46 183.322 102.597 184.227 102.869 185.023C103.15 185.818 103.563 186.447 104.108 186.909C104.661 187.364 105.343 187.591 106.153 187.591ZM122.71 180.909V191H117.869V173.545H122.483V176.625H122.688C123.074 175.61 123.722 174.807 124.631 174.216C125.54 173.617 126.642 173.318 127.938 173.318C129.15 173.318 130.206 173.583 131.108 174.114C132.009 174.644 132.71 175.402 133.21 176.386C133.71 177.364 133.96 178.53 133.96 179.886V191H129.119V180.75C129.127 179.682 128.854 178.848 128.301 178.25C127.748 177.644 126.987 177.341 126.017 177.341C125.366 177.341 124.79 177.481 124.29 177.761C123.797 178.042 123.411 178.451 123.131 178.989C122.858 179.519 122.718 180.159 122.71 180.909ZM154.466 173.545V177.182H143.955V173.545H154.466ZM146.341 169.364H151.182V185.636C151.182 186.083 151.25 186.432 151.386 186.682C151.523 186.924 151.712 187.095 151.955 187.193C152.205 187.292 152.492 187.341 152.818 187.341C153.045 187.341 153.273 187.322 153.5 187.284C153.727 187.239 153.902 187.205 154.023 187.182L154.784 190.784C154.542 190.86 154.201 190.947 153.761 191.045C153.322 191.152 152.788 191.216 152.159 191.239C150.992 191.284 149.97 191.129 149.091 190.773C148.22 190.417 147.542 189.864 147.057 189.114C146.572 188.364 146.333 187.417 146.341 186.273V169.364ZM162.835 180.909V191H157.994V167.727H162.699V176.625H162.903C163.297 175.595 163.934 174.788 164.812 174.205C165.691 173.614 166.794 173.318 168.119 173.318C169.331 173.318 170.388 173.583 171.29 174.114C172.199 174.636 172.903 175.39 173.403 176.375C173.911 177.352 174.161 178.523 174.153 179.886V191H169.312V180.75C169.32 179.674 169.047 178.837 168.494 178.239C167.949 177.64 167.184 177.341 166.199 177.341C165.54 177.341 164.956 177.481 164.449 177.761C163.949 178.042 163.555 178.451 163.267 178.989C162.987 179.519 162.843 180.159 162.835 180.909ZM185.918 191.341C184.122 191.341 182.577 190.977 181.281 190.25C179.993 189.515 179.001 188.477 178.304 187.136C177.607 185.788 177.259 184.193 177.259 182.352C177.259 180.557 177.607 178.981 178.304 177.625C179.001 176.269 179.982 175.212 181.247 174.455C182.52 173.697 184.012 173.318 185.724 173.318C186.876 173.318 187.948 173.504 188.94 173.875C189.94 174.239 190.812 174.788 191.554 175.523C192.304 176.258 192.887 177.182 193.304 178.295C193.721 179.402 193.929 180.697 193.929 182.182V183.511H179.19V180.511H189.372C189.372 179.814 189.221 179.197 188.918 178.659C188.615 178.121 188.194 177.701 187.656 177.398C187.126 177.087 186.509 176.932 185.804 176.932C185.069 176.932 184.418 177.102 183.849 177.443C183.289 177.777 182.849 178.227 182.531 178.795C182.213 179.356 182.05 179.981 182.043 180.67V183.523C182.043 184.386 182.202 185.133 182.52 185.761C182.846 186.39 183.304 186.875 183.895 187.216C184.486 187.557 185.187 187.727 185.997 187.727C186.535 187.727 187.027 187.652 187.474 187.5C187.921 187.348 188.304 187.121 188.622 186.818C188.94 186.515 189.183 186.144 189.349 185.705L193.827 186C193.599 187.076 193.134 188.015 192.429 188.818C191.732 189.614 190.83 190.235 189.724 190.682C188.626 191.121 187.357 191.341 185.918 191.341ZM217.21 174.42C217.119 173.504 216.729 172.792 216.04 172.284C215.35 171.777 214.415 171.523 213.233 171.523C212.43 171.523 211.752 171.636 211.199 171.864C210.646 172.083 210.222 172.39 209.926 172.784C209.638 173.178 209.494 173.625 209.494 174.125C209.479 174.542 209.566 174.905 209.756 175.216C209.953 175.527 210.222 175.795 210.562 176.023C210.903 176.242 211.297 176.436 211.744 176.602C212.191 176.761 212.669 176.898 213.176 177.011L215.267 177.511C216.282 177.739 217.214 178.042 218.062 178.42C218.911 178.799 219.646 179.265 220.267 179.818C220.888 180.371 221.369 181.023 221.71 181.773C222.059 182.523 222.237 183.383 222.244 184.352C222.237 185.777 221.873 187.011 221.153 188.057C220.441 189.095 219.411 189.902 218.062 190.477C216.722 191.045 215.104 191.33 213.21 191.33C211.331 191.33 209.695 191.042 208.301 190.466C206.915 189.89 205.831 189.038 205.051 187.909C204.278 186.773 203.873 185.367 203.835 183.693H208.597C208.65 184.473 208.873 185.125 209.267 185.648C209.669 186.163 210.203 186.553 210.869 186.818C211.544 187.076 212.305 187.205 213.153 187.205C213.987 187.205 214.71 187.083 215.324 186.841C215.945 186.598 216.426 186.261 216.767 185.83C217.108 185.398 217.278 184.902 217.278 184.341C217.278 183.818 217.123 183.379 216.812 183.023C216.509 182.667 216.063 182.364 215.472 182.114C214.888 181.864 214.172 181.636 213.324 181.432L210.79 180.795C208.828 180.318 207.278 179.572 206.142 178.557C205.006 177.542 204.441 176.174 204.449 174.455C204.441 173.045 204.816 171.814 205.574 170.761C206.339 169.708 207.388 168.886 208.722 168.295C210.055 167.705 211.57 167.409 213.267 167.409C214.994 167.409 216.502 167.705 217.79 168.295C219.085 168.886 220.093 169.708 220.812 170.761C221.532 171.814 221.903 173.034 221.926 174.42H217.21ZM225.463 191V173.545H230.304V191H225.463ZM227.895 171.295C227.175 171.295 226.558 171.057 226.043 170.58C225.535 170.095 225.281 169.515 225.281 168.841C225.281 168.174 225.535 167.602 226.043 167.125C226.558 166.64 227.175 166.398 227.895 166.398C228.615 166.398 229.228 166.64 229.736 167.125C230.251 167.602 230.509 168.174 230.509 168.841C230.509 169.515 230.251 170.095 229.736 170.58C229.228 171.057 228.615 171.295 227.895 171.295ZM242.045 197.909C240.477 197.909 239.133 197.693 238.011 197.261C236.898 196.837 236.011 196.258 235.352 195.523C234.693 194.788 234.265 193.962 234.068 193.045L238.545 192.443C238.682 192.792 238.898 193.117 239.193 193.42C239.489 193.723 239.879 193.966 240.364 194.148C240.856 194.337 241.455 194.432 242.159 194.432C243.212 194.432 244.08 194.174 244.761 193.659C245.451 193.152 245.795 192.299 245.795 191.102V187.909H245.591C245.379 188.394 245.061 188.852 244.636 189.284C244.212 189.716 243.667 190.068 243 190.341C242.333 190.614 241.538 190.75 240.614 190.75C239.303 190.75 238.11 190.447 237.034 189.841C235.966 189.227 235.114 188.292 234.477 187.034C233.848 185.769 233.534 184.17 233.534 182.239C233.534 180.261 233.856 178.61 234.5 177.284C235.144 175.958 236 174.966 237.068 174.307C238.144 173.648 239.322 173.318 240.602 173.318C241.58 173.318 242.398 173.485 243.057 173.818C243.716 174.144 244.246 174.553 244.648 175.045C245.057 175.53 245.371 176.008 245.591 176.477H245.773V173.545H250.58V191.17C250.58 192.655 250.216 193.898 249.489 194.898C248.761 195.898 247.754 196.648 246.466 197.148C245.186 197.655 243.712 197.909 242.045 197.909ZM242.148 187.114C242.928 187.114 243.587 186.92 244.125 186.534C244.67 186.14 245.087 185.58 245.375 184.852C245.67 184.117 245.818 183.239 245.818 182.216C245.818 181.193 245.674 180.307 245.386 179.557C245.098 178.799 244.682 178.212 244.136 177.795C243.591 177.379 242.928 177.17 242.148 177.17C241.352 177.17 240.682 177.386 240.136 177.818C239.591 178.242 239.178 178.833 238.898 179.591C238.617 180.348 238.477 181.223 238.477 182.216C238.477 183.223 238.617 184.095 238.898 184.83C239.186 185.557 239.598 186.121 240.136 186.523C240.682 186.917 241.352 187.114 242.148 187.114ZM259.273 180.909V191H254.432V173.545H259.045V176.625H259.25C259.636 175.61 260.284 174.807 261.193 174.216C262.102 173.617 263.205 173.318 264.5 173.318C265.712 173.318 266.769 173.583 267.67 174.114C268.572 174.644 269.273 175.402 269.773 176.386C270.273 177.364 270.523 178.53 270.523 179.886V191H265.682V180.75C265.689 179.682 265.417 178.848 264.864 178.25C264.311 177.644 263.549 177.341 262.58 177.341C261.928 177.341 261.352 177.481 260.852 177.761C260.36 178.042 259.973 178.451 259.693 178.989C259.42 179.519 259.28 180.159 259.273 180.909ZM296.21 167.727H301.131V182.841C301.131 184.538 300.725 186.023 299.915 187.295C299.112 188.568 297.987 189.561 296.54 190.273C295.093 190.977 293.407 191.33 291.483 191.33C289.551 191.33 287.862 190.977 286.415 190.273C284.968 189.561 283.843 188.568 283.04 187.295C282.237 186.023 281.835 184.538 281.835 182.841V167.727H286.756V182.42C286.756 183.307 286.949 184.095 287.335 184.784C287.729 185.473 288.282 186.015 288.994 186.409C289.706 186.803 290.536 187 291.483 187C292.438 187 293.267 186.803 293.972 186.409C294.684 186.015 295.233 185.473 295.619 184.784C296.013 184.095 296.21 183.307 296.21 182.42V167.727ZM305.088 197.545V173.545H309.861V176.477H310.077C310.289 176.008 310.596 175.53 310.997 175.045C311.406 174.553 311.937 174.144 312.588 173.818C313.247 173.485 314.065 173.318 315.043 173.318C316.315 173.318 317.49 173.652 318.565 174.318C319.641 174.977 320.501 175.973 321.145 177.307C321.789 178.633 322.111 180.295 322.111 182.295C322.111 184.242 321.796 185.886 321.168 187.227C320.546 188.561 319.698 189.572 318.622 190.261C317.554 190.943 316.357 191.284 315.031 191.284C314.092 191.284 313.293 191.129 312.634 190.818C311.982 190.508 311.448 190.117 311.031 189.648C310.615 189.17 310.296 188.689 310.077 188.205H309.929V197.545H305.088ZM309.827 182.273C309.827 183.311 309.971 184.216 310.259 184.989C310.546 185.761 310.963 186.364 311.509 186.795C312.054 187.22 312.717 187.432 313.497 187.432C314.285 187.432 314.952 187.216 315.497 186.784C316.043 186.345 316.455 185.739 316.736 184.966C317.024 184.186 317.168 183.288 317.168 182.273C317.168 181.265 317.027 180.379 316.747 179.614C316.467 178.848 316.054 178.25 315.509 177.818C314.963 177.386 314.293 177.17 313.497 177.17C312.709 177.17 312.043 177.379 311.497 177.795C310.959 178.212 310.546 178.803 310.259 179.568C309.971 180.333 309.827 181.235 309.827 182.273Z" fill="#075418"/>
<path d="M20.7727 216H19.3636C19.2803 215.595 19.1345 215.239 18.9261 214.932C18.7216 214.625 18.4716 214.367 18.1761 214.159C17.8845 213.947 17.5606 213.788 17.2045 213.682C16.8485 213.576 16.4773 213.523 16.0909 213.523C15.3864 213.523 14.7481 213.701 14.1761 214.057C13.608 214.413 13.1553 214.938 12.8182 215.631C12.4848 216.324 12.3182 217.174 12.3182 218.182C12.3182 219.189 12.4848 220.04 12.8182 220.733C13.1553 221.426 13.608 221.951 14.1761 222.307C14.7481 222.663 15.3864 222.841 16.0909 222.841C16.4773 222.841 16.8485 222.788 17.2045 222.682C17.5606 222.576 17.8845 222.419 18.1761 222.21C18.4716 221.998 18.7216 221.739 18.9261 221.432C19.1345 221.121 19.2803 220.765 19.3636 220.364H20.7727C20.6667 220.958 20.4735 221.491 20.1932 221.96C19.9129 222.43 19.5644 222.83 19.1477 223.159C18.7311 223.485 18.2633 223.733 17.7443 223.903C17.2292 224.074 16.678 224.159 16.0909 224.159C15.0985 224.159 14.2159 223.917 13.4432 223.432C12.6705 222.947 12.0625 222.258 11.6193 221.364C11.1761 220.47 10.9545 219.409 10.9545 218.182C10.9545 216.955 11.1761 215.894 11.6193 215C12.0625 214.106 12.6705 213.417 13.4432 212.932C14.2159 212.447 15.0985 212.205 16.0909 212.205C16.678 212.205 17.2292 212.29 17.7443 212.46C18.2633 212.631 18.7311 212.881 19.1477 213.21C19.5644 213.536 19.9129 213.934 20.1932 214.403C20.4735 214.869 20.6667 215.402 20.7727 216ZM24.2088 212.364V224H22.8679V212.364H24.2088ZM26.6648 224V215.273H28.0057V224H26.6648ZM27.3466 213.818C27.0852 213.818 26.8598 213.729 26.6705 213.551C26.4848 213.373 26.392 213.159 26.392 212.909C26.392 212.659 26.4848 212.445 26.6705 212.267C26.8598 212.089 27.0852 212 27.3466 212C27.608 212 27.8314 212.089 28.017 212.267C28.2064 212.445 28.3011 212.659 28.3011 212.909C28.3011 213.159 28.2064 213.373 28.017 213.551C27.8314 213.729 27.608 213.818 27.3466 213.818ZM34.0071 224.182C33.1889 224.182 32.4844 223.989 31.8935 223.602C31.3026 223.216 30.848 222.684 30.5298 222.006C30.2116 221.328 30.0526 220.553 30.0526 219.682C30.0526 218.795 30.2154 218.013 30.5412 217.335C30.8707 216.653 31.3291 216.121 31.9162 215.739C32.5071 215.352 33.1965 215.159 33.9844 215.159C34.598 215.159 35.151 215.273 35.6435 215.5C36.1359 215.727 36.5393 216.045 36.8537 216.455C37.1681 216.864 37.3632 217.341 37.4389 217.886H36.098C35.9957 217.489 35.7685 217.136 35.4162 216.83C35.0677 216.519 34.598 216.364 34.0071 216.364C33.4844 216.364 33.026 216.5 32.6321 216.773C32.242 217.042 31.937 217.422 31.7173 217.915C31.5014 218.403 31.3935 218.977 31.3935 219.636C31.3935 220.311 31.4995 220.898 31.7116 221.398C31.9276 221.898 32.2306 222.286 32.6207 222.562C33.0147 222.839 33.4768 222.977 34.0071 222.977C34.3556 222.977 34.6719 222.917 34.956 222.795C35.2401 222.674 35.4806 222.5 35.6776 222.273C35.8745 222.045 36.0147 221.773 36.098 221.455H37.4389C37.3632 221.97 37.1757 222.434 36.8764 222.847C36.581 223.256 36.1889 223.581 35.7003 223.824C35.2154 224.062 34.651 224.182 34.0071 224.182ZM40.6491 220.818L40.6264 219.159H40.8991L44.7173 215.273H46.3764L42.3082 219.386H42.1946L40.6491 220.818ZM39.3991 224V212.364H40.7401V224H39.3991ZM44.9446 224L41.5355 219.682L42.4901 218.75L46.6491 224H44.9446ZM56.1477 224.182C55.3598 224.182 54.6686 223.994 54.0739 223.619C53.483 223.244 53.0208 222.72 52.6875 222.045C52.358 221.371 52.1932 220.583 52.1932 219.682C52.1932 218.773 52.358 217.979 52.6875 217.301C53.0208 216.623 53.483 216.097 54.0739 215.722C54.6686 215.347 55.3598 215.159 56.1477 215.159C56.9356 215.159 57.625 215.347 58.2159 215.722C58.8106 216.097 59.2727 216.623 59.6023 217.301C59.9356 217.979 60.1023 218.773 60.1023 219.682C60.1023 220.583 59.9356 221.371 59.6023 222.045C59.2727 222.72 58.8106 223.244 58.2159 223.619C57.625 223.994 56.9356 224.182 56.1477 224.182ZM56.1477 222.977C56.7462 222.977 57.2386 222.824 57.625 222.517C58.0114 222.21 58.2973 221.807 58.483 221.307C58.6686 220.807 58.7614 220.265 58.7614 219.682C58.7614 219.098 58.6686 218.555 58.483 218.051C58.2973 217.547 58.0114 217.14 57.625 216.83C57.2386 216.519 56.7462 216.364 56.1477 216.364C55.5492 216.364 55.0568 216.519 54.6705 216.83C54.2841 217.14 53.9981 217.547 53.8125 218.051C53.6269 218.555 53.5341 219.098 53.5341 219.682C53.5341 220.265 53.6269 220.807 53.8125 221.307C53.9981 221.807 54.2841 222.21 54.6705 222.517C55.0568 222.824 55.5492 222.977 56.1477 222.977ZM63.4901 218.75V224H62.1491V215.273H63.4446V216.636H63.5582C63.7628 216.193 64.0734 215.837 64.4901 215.568C64.9067 215.295 65.4446 215.159 66.1037 215.159C66.6946 215.159 67.2116 215.28 67.6548 215.523C68.098 215.761 68.4427 216.125 68.6889 216.614C68.9351 217.098 69.0582 217.712 69.0582 218.455V224H67.7173V218.545C67.7173 217.86 67.5393 217.326 67.1832 216.943C66.8272 216.557 66.3385 216.364 65.7173 216.364C65.2893 216.364 64.9067 216.456 64.5696 216.642C64.2363 216.828 63.973 217.098 63.7798 217.455C63.5866 217.811 63.4901 218.242 63.4901 218.75ZM82.554 215.273C82.4858 214.697 82.2093 214.25 81.7244 213.932C81.2396 213.614 80.6449 213.455 79.9403 213.455C79.4252 213.455 78.9744 213.538 78.5881 213.705C78.2055 213.871 77.9063 214.1 77.6903 214.392C77.4782 214.684 77.3722 215.015 77.3722 215.386C77.3722 215.697 77.446 215.964 77.5938 216.188C77.7453 216.407 77.9384 216.591 78.1733 216.739C78.4081 216.883 78.6544 217.002 78.9119 217.097C79.1695 217.187 79.4062 217.261 79.6222 217.318L80.804 217.636C81.107 217.716 81.4441 217.826 81.8153 217.966C82.1903 218.106 82.5483 218.297 82.8892 218.54C83.2339 218.778 83.518 219.085 83.7415 219.46C83.965 219.835 84.0767 220.295 84.0767 220.841C84.0767 221.47 83.9119 222.038 83.5824 222.545C83.2566 223.053 82.7794 223.456 82.1506 223.756C81.5256 224.055 80.7661 224.205 79.8722 224.205C79.0388 224.205 78.3172 224.07 77.7074 223.801C77.1013 223.532 76.6241 223.157 76.2756 222.676C75.9309 222.195 75.7358 221.636 75.6903 221H77.1449C77.1828 221.439 77.3305 221.803 77.5881 222.091C77.8494 222.375 78.179 222.587 78.5767 222.727C78.9782 222.864 79.41 222.932 79.8722 222.932C80.41 222.932 80.893 222.845 81.321 222.67C81.7491 222.492 82.0881 222.246 82.3381 221.932C82.5881 221.614 82.7131 221.242 82.7131 220.818C82.7131 220.432 82.6051 220.117 82.3892 219.875C82.1733 219.633 81.8892 219.436 81.5369 219.284C81.1847 219.133 80.804 219 80.3949 218.886L78.9631 218.477C78.054 218.216 77.3343 217.843 76.804 217.358C76.2737 216.873 76.0085 216.239 76.0085 215.455C76.0085 214.803 76.1847 214.235 76.5369 213.75C76.893 213.261 77.3703 212.883 77.9688 212.614C78.571 212.341 79.2434 212.205 79.9858 212.205C80.7358 212.205 81.4025 212.339 81.9858 212.608C82.5691 212.873 83.0313 213.237 83.3722 213.699C83.7169 214.161 83.8987 214.686 83.9176 215.273H82.554ZM86.2116 224V215.273H87.5526V224H86.2116ZM86.8935 213.818C86.6321 213.818 86.4067 213.729 86.2173 213.551C86.0317 213.373 85.9389 213.159 85.9389 212.909C85.9389 212.659 86.0317 212.445 86.2173 212.267C86.4067 212.089 86.6321 212 86.8935 212C87.1548 212 87.3783 212.089 87.5639 212.267C87.7533 212.445 87.848 212.659 87.848 212.909C87.848 213.159 87.7533 213.373 87.5639 213.551C87.3783 213.729 87.1548 213.818 86.8935 213.818ZM93.5312 227.455C92.8835 227.455 92.3267 227.371 91.8608 227.205C91.3949 227.042 91.0066 226.826 90.696 226.557C90.3892 226.292 90.1449 226.008 89.9631 225.705L91.0312 224.955C91.1525 225.114 91.3059 225.295 91.4915 225.5C91.6771 225.708 91.9309 225.888 92.2528 226.04C92.5786 226.195 93.0047 226.273 93.5312 226.273C94.2358 226.273 94.8172 226.102 95.2756 225.761C95.7339 225.42 95.9631 224.886 95.9631 224.159V222.386H95.8494C95.7509 222.545 95.6108 222.742 95.429 222.977C95.2509 223.208 94.9934 223.415 94.6562 223.597C94.3229 223.775 93.8722 223.864 93.304 223.864C92.5994 223.864 91.9669 223.697 91.4062 223.364C90.8494 223.03 90.4081 222.545 90.0824 221.909C89.7604 221.273 89.5994 220.5 89.5994 219.591C89.5994 218.697 89.7566 217.919 90.071 217.256C90.3854 216.589 90.8229 216.074 91.3835 215.71C91.9441 215.343 92.5919 215.159 93.3267 215.159C93.8949 215.159 94.3456 215.254 94.679 215.443C95.0161 215.629 95.2737 215.841 95.4517 216.08C95.6335 216.314 95.7737 216.508 95.8722 216.659H96.0085V215.273H97.304V224.25C97.304 225 97.1335 225.61 96.7926 226.08C96.4555 226.553 96.0009 226.9 95.429 227.119C94.8608 227.343 94.2282 227.455 93.5312 227.455ZM93.4858 222.659C94.0237 222.659 94.4782 222.536 94.8494 222.29C95.2206 222.044 95.5028 221.689 95.696 221.227C95.8892 220.765 95.9858 220.212 95.9858 219.568C95.9858 218.939 95.8911 218.384 95.7017 217.903C95.5123 217.422 95.232 217.045 94.8608 216.773C94.4896 216.5 94.0313 216.364 93.4858 216.364C92.9176 216.364 92.4441 216.508 92.0653 216.795C91.6903 217.083 91.4081 217.47 91.2188 217.955C91.0331 218.439 90.9403 218.977 90.9403 219.568C90.9403 220.174 91.035 220.71 91.2244 221.176C91.4176 221.638 91.7017 222.002 92.0767 222.267C92.4555 222.528 92.9252 222.659 93.4858 222.659ZM101.099 218.75V224H99.7585V215.273H101.054V216.636H101.168C101.372 216.193 101.683 215.837 102.099 215.568C102.516 215.295 103.054 215.159 103.713 215.159C104.304 215.159 104.821 215.28 105.264 215.523C105.707 215.761 106.052 216.125 106.298 216.614C106.545 217.098 106.668 217.712 106.668 218.455V224H105.327V218.545C105.327 217.86 105.149 217.326 104.793 216.943C104.437 216.557 103.948 216.364 103.327 216.364C102.899 216.364 102.516 216.456 102.179 216.642C101.846 216.828 101.582 217.098 101.389 217.455C101.196 217.811 101.099 218.242 101.099 218.75ZM121.436 212.364H122.845V220.068C122.845 220.864 122.658 221.574 122.283 222.199C121.911 222.82 121.387 223.311 120.709 223.67C120.031 224.027 119.235 224.205 118.322 224.205C117.41 224.205 116.614 224.027 115.936 223.67C115.258 223.311 114.732 222.82 114.357 222.199C113.985 221.574 113.8 220.864 113.8 220.068V212.364H115.209V219.955C115.209 220.523 115.334 221.028 115.584 221.472C115.834 221.911 116.19 222.258 116.652 222.511C117.118 222.761 117.675 222.886 118.322 222.886C118.97 222.886 119.527 222.761 119.993 222.511C120.459 222.258 120.815 221.911 121.061 221.472C121.311 221.028 121.436 220.523 121.436 219.955V212.364ZM125.477 227.273V215.273H126.773V216.659H126.932C127.03 216.508 127.167 216.314 127.341 216.08C127.519 215.841 127.773 215.629 128.102 215.443C128.436 215.254 128.886 215.159 129.455 215.159C130.189 215.159 130.837 215.343 131.398 215.71C131.958 216.078 132.396 216.598 132.71 217.273C133.025 217.947 133.182 218.742 133.182 219.659C133.182 220.583 133.025 221.384 132.71 222.062C132.396 222.737 131.96 223.259 131.403 223.631C130.847 223.998 130.205 224.182 129.477 224.182C128.917 224.182 128.468 224.089 128.131 223.903C127.794 223.714 127.534 223.5 127.352 223.261C127.17 223.019 127.03 222.818 126.932 222.659H126.818V227.273H125.477ZM126.795 219.636C126.795 220.295 126.892 220.877 127.085 221.381C127.278 221.881 127.561 222.273 127.932 222.557C128.303 222.837 128.758 222.977 129.295 222.977C129.856 222.977 130.324 222.83 130.699 222.534C131.078 222.235 131.362 221.833 131.551 221.33C131.744 220.822 131.841 220.258 131.841 219.636C131.841 219.023 131.746 218.47 131.557 217.977C131.371 217.481 131.089 217.089 130.71 216.801C130.335 216.509 129.864 216.364 129.295 216.364C128.75 216.364 128.292 216.502 127.92 216.778C127.549 217.051 127.269 217.434 127.08 217.926C126.89 218.415 126.795 218.985 126.795 219.636ZM139.909 224V212.364H141.25V216.659H141.364C141.462 216.508 141.598 216.314 141.773 216.08C141.951 215.841 142.205 215.629 142.534 215.443C142.867 215.254 143.318 215.159 143.886 215.159C144.621 215.159 145.269 215.343 145.83 215.71C146.39 216.078 146.828 216.598 147.142 217.273C147.456 217.947 147.614 218.742 147.614 219.659C147.614 220.583 147.456 221.384 147.142 222.062C146.828 222.737 146.392 223.259 145.835 223.631C145.278 223.998 144.636 224.182 143.909 224.182C143.348 224.182 142.9 224.089 142.562 223.903C142.225 223.714 141.966 223.5 141.784 223.261C141.602 223.019 141.462 222.818 141.364 222.659H141.205V224H139.909ZM141.227 219.636C141.227 220.295 141.324 220.877 141.517 221.381C141.71 221.881 141.992 222.273 142.364 222.557C142.735 222.837 143.189 222.977 143.727 222.977C144.288 222.977 144.756 222.83 145.131 222.534C145.509 222.235 145.794 221.833 145.983 221.33C146.176 220.822 146.273 220.258 146.273 219.636C146.273 219.023 146.178 218.47 145.989 217.977C145.803 217.481 145.521 217.089 145.142 216.801C144.767 216.509 144.295 216.364 143.727 216.364C143.182 216.364 142.723 216.502 142.352 216.778C141.981 217.051 141.701 217.434 141.511 217.926C141.322 218.415 141.227 218.985 141.227 219.636ZM153.21 224.182C152.422 224.182 151.731 223.994 151.136 223.619C150.545 223.244 150.083 222.72 149.75 222.045C149.42 221.371 149.256 220.583 149.256 219.682C149.256 218.773 149.42 217.979 149.75 217.301C150.083 216.623 150.545 216.097 151.136 215.722C151.731 215.347 152.422 215.159 153.21 215.159C153.998 215.159 154.688 215.347 155.278 215.722C155.873 216.097 156.335 216.623 156.665 217.301C156.998 217.979 157.165 218.773 157.165 219.682C157.165 220.583 156.998 221.371 156.665 222.045C156.335 222.72 155.873 223.244 155.278 223.619C154.688 223.994 153.998 224.182 153.21 224.182ZM153.21 222.977C153.809 222.977 154.301 222.824 154.688 222.517C155.074 222.21 155.36 221.807 155.545 221.307C155.731 220.807 155.824 220.265 155.824 219.682C155.824 219.098 155.731 218.555 155.545 218.051C155.36 217.547 155.074 217.14 154.688 216.83C154.301 216.519 153.809 216.364 153.21 216.364C152.612 216.364 152.119 216.519 151.733 216.83C151.347 217.14 151.061 217.547 150.875 218.051C150.689 218.555 150.597 219.098 150.597 219.682C150.597 220.265 150.689 220.807 150.875 221.307C151.061 221.807 151.347 222.21 151.733 222.517C152.119 222.824 152.612 222.977 153.21 222.977ZM163.007 215.273V216.409H158.484V215.273H163.007ZM159.803 213.182H161.143V221.5C161.143 221.879 161.198 222.163 161.308 222.352C161.422 222.538 161.566 222.663 161.74 222.727C161.918 222.788 162.106 222.818 162.303 222.818C162.45 222.818 162.571 222.811 162.666 222.795C162.761 222.777 162.837 222.761 162.893 222.75L163.166 223.955C163.075 223.989 162.948 224.023 162.786 224.057C162.623 224.095 162.416 224.114 162.166 224.114C161.787 224.114 161.416 224.032 161.053 223.869C160.693 223.706 160.393 223.458 160.155 223.125C159.92 222.792 159.803 222.371 159.803 221.864V213.182ZM168.82 215.273V216.409H164.297V215.273H168.82ZM165.615 213.182H166.956V221.5C166.956 221.879 167.011 222.163 167.121 222.352C167.234 222.538 167.378 222.663 167.553 222.727C167.731 222.788 167.918 222.818 168.115 222.818C168.263 222.818 168.384 222.811 168.479 222.795C168.573 222.777 168.649 222.761 168.706 222.75L168.979 223.955C168.888 223.989 168.761 224.023 168.598 224.057C168.435 224.095 168.229 224.114 167.979 224.114C167.6 224.114 167.229 224.032 166.865 223.869C166.505 223.706 166.206 223.458 165.967 223.125C165.732 222.792 165.615 222.371 165.615 221.864V213.182ZM174.288 224.182C173.5 224.182 172.809 223.994 172.214 223.619C171.624 223.244 171.161 222.72 170.828 222.045C170.499 221.371 170.334 220.583 170.334 219.682C170.334 218.773 170.499 217.979 170.828 217.301C171.161 216.623 171.624 216.097 172.214 215.722C172.809 215.347 173.5 215.159 174.288 215.159C175.076 215.159 175.766 215.347 176.357 215.722C176.951 216.097 177.413 216.623 177.743 217.301C178.076 217.979 178.243 218.773 178.243 219.682C178.243 220.583 178.076 221.371 177.743 222.045C177.413 222.72 176.951 223.244 176.357 223.619C175.766 223.994 175.076 224.182 174.288 224.182ZM174.288 222.977C174.887 222.977 175.379 222.824 175.766 222.517C176.152 222.21 176.438 221.807 176.624 221.307C176.809 220.807 176.902 220.265 176.902 219.682C176.902 219.098 176.809 218.555 176.624 218.051C176.438 217.547 176.152 217.14 175.766 216.83C175.379 216.519 174.887 216.364 174.288 216.364C173.69 216.364 173.197 216.519 172.811 216.83C172.425 217.14 172.139 217.547 171.953 218.051C171.768 218.555 171.675 219.098 171.675 219.682C171.675 220.265 171.768 220.807 171.953 221.307C172.139 221.807 172.425 222.21 172.811 222.517C173.197 222.824 173.69 222.977 174.288 222.977ZM181.631 218.75V224H180.29V215.273H181.585V216.636H181.699C181.903 216.193 182.214 215.837 182.631 215.568C183.047 215.295 183.585 215.159 184.244 215.159C184.835 215.159 185.352 215.28 185.795 215.523C186.239 215.761 186.583 216.125 186.83 216.614C187.076 217.098 187.199 217.712 187.199 218.455V224H185.858V218.545C185.858 217.86 185.68 217.326 185.324 216.943C184.968 216.557 184.479 216.364 183.858 216.364C183.43 216.364 183.047 216.456 182.71 216.642C182.377 216.828 182.114 217.098 181.92 217.455C181.727 217.811 181.631 218.242 181.631 218.75ZM191.649 222.409L191.558 223.023C191.494 223.455 191.395 223.917 191.263 224.409C191.134 224.902 191 225.366 190.859 225.801C190.719 226.237 190.604 226.583 190.513 226.841H189.49C189.539 226.598 189.604 226.278 189.683 225.881C189.763 225.483 189.842 225.038 189.922 224.545C190.005 224.057 190.073 223.557 190.126 223.045L190.195 222.409H191.649ZM197.929 215.273V216.409H193.406V215.273H197.929ZM194.724 213.182H196.065V221.5C196.065 221.879 196.12 222.163 196.23 222.352C196.344 222.538 196.488 222.663 196.662 222.727C196.84 222.788 197.027 222.818 197.224 222.818C197.372 222.818 197.493 222.811 197.588 222.795C197.683 222.777 197.759 222.761 197.815 222.75L198.088 223.955C197.997 223.989 197.87 224.023 197.707 224.057C197.545 224.095 197.338 224.114 197.088 224.114C196.709 224.114 196.338 224.032 195.974 223.869C195.615 223.706 195.315 223.458 195.077 223.125C194.842 222.792 194.724 222.371 194.724 221.864V213.182ZM201.474 218.75V224H200.134V212.364H201.474V216.636H201.588C201.793 216.186 202.099 215.828 202.509 215.562C202.921 215.294 203.471 215.159 204.156 215.159C204.751 215.159 205.272 215.278 205.719 215.517C206.166 215.752 206.512 216.114 206.759 216.602C207.009 217.087 207.134 217.705 207.134 218.455V224H205.793V218.545C205.793 217.852 205.613 217.316 205.253 216.938C204.897 216.555 204.402 216.364 203.77 216.364C203.33 216.364 202.937 216.456 202.588 216.642C202.243 216.828 201.971 217.098 201.77 217.455C201.573 217.811 201.474 218.242 201.474 218.75ZM209.587 224V215.273H210.928V224H209.587ZM210.268 213.818C210.007 213.818 209.782 213.729 209.592 213.551C209.407 213.373 209.314 213.159 209.314 212.909C209.314 212.659 209.407 212.445 209.592 212.267C209.782 212.089 210.007 212 210.268 212C210.53 212 210.753 212.089 210.939 212.267C211.128 212.445 211.223 212.659 211.223 212.909C211.223 213.159 211.128 213.373 210.939 213.551C210.753 213.729 210.53 213.818 210.268 213.818ZM219.565 217.227L218.361 217.568C218.285 217.367 218.173 217.172 218.026 216.983C217.882 216.79 217.685 216.631 217.435 216.506C217.185 216.381 216.865 216.318 216.474 216.318C215.94 216.318 215.495 216.441 215.139 216.688C214.787 216.93 214.611 217.239 214.611 217.614C214.611 217.947 214.732 218.21 214.974 218.403C215.217 218.597 215.596 218.758 216.111 218.886L217.406 219.205C218.187 219.394 218.768 219.684 219.151 220.074C219.533 220.46 219.724 220.958 219.724 221.568C219.724 222.068 219.58 222.515 219.293 222.909C219.009 223.303 218.611 223.614 218.099 223.841C217.588 224.068 216.993 224.182 216.315 224.182C215.425 224.182 214.688 223.989 214.105 223.602C213.522 223.216 213.152 222.652 212.997 221.909L214.27 221.591C214.391 222.061 214.62 222.413 214.957 222.648C215.298 222.883 215.743 223 216.293 223C216.918 223 217.414 222.867 217.781 222.602C218.152 222.333 218.338 222.011 218.338 221.636C218.338 221.333 218.232 221.08 218.02 220.875C217.808 220.667 217.482 220.511 217.043 220.409L215.588 220.068C214.789 219.879 214.202 219.585 213.827 219.188C213.455 218.786 213.27 218.284 213.27 217.682C213.27 217.189 213.408 216.754 213.685 216.375C213.965 215.996 214.346 215.699 214.827 215.483C215.312 215.267 215.861 215.159 216.474 215.159C217.338 215.159 218.016 215.348 218.509 215.727C219.005 216.106 219.357 216.606 219.565 217.227ZM228.22 224L225.561 215.273H226.97L228.857 221.955H228.947L230.811 215.273H232.243L234.084 221.932H234.175L236.061 215.273H237.47L234.811 224H233.493L231.584 217.295H231.447L229.538 224H228.22ZM242.491 224.182C241.704 224.182 241.012 223.994 240.418 223.619C239.827 223.244 239.365 222.72 239.031 222.045C238.702 221.371 238.537 220.583 238.537 219.682C238.537 218.773 238.702 217.979 239.031 217.301C239.365 216.623 239.827 216.097 240.418 215.722C241.012 215.347 241.704 215.159 242.491 215.159C243.279 215.159 243.969 215.347 244.56 215.722C245.154 216.097 245.616 216.623 245.946 217.301C246.279 217.979 246.446 218.773 246.446 219.682C246.446 220.583 246.279 221.371 245.946 222.045C245.616 222.72 245.154 223.244 244.56 223.619C243.969 223.994 243.279 224.182 242.491 224.182ZM242.491 222.977C243.09 222.977 243.582 222.824 243.969 222.517C244.355 222.21 244.641 221.807 244.827 221.307C245.012 220.807 245.105 220.265 245.105 219.682C245.105 219.098 245.012 218.555 244.827 218.051C244.641 217.547 244.355 217.14 243.969 216.83C243.582 216.519 243.09 216.364 242.491 216.364C241.893 216.364 241.401 216.519 241.014 216.83C240.628 217.14 240.342 217.547 240.156 218.051C239.971 218.555 239.878 219.098 239.878 219.682C239.878 220.265 239.971 220.807 240.156 221.307C240.342 221.807 240.628 222.21 241.014 222.517C241.401 222.824 241.893 222.977 242.491 222.977ZM253.993 220.432V215.273H255.334V224H253.993V222.523H253.902C253.697 222.966 253.379 223.343 252.947 223.653C252.516 223.96 251.97 224.114 251.311 224.114C250.766 224.114 250.281 223.994 249.857 223.756C249.432 223.513 249.099 223.15 248.857 222.665C248.614 222.176 248.493 221.561 248.493 220.818V215.273H249.834V220.727C249.834 221.364 250.012 221.871 250.368 222.25C250.728 222.629 251.186 222.818 251.743 222.818C252.076 222.818 252.415 222.733 252.76 222.562C253.108 222.392 253.4 222.131 253.635 221.778C253.874 221.426 253.993 220.977 253.993 220.432ZM259.131 212.364V224H257.79V212.364H259.131ZM264.882 224.182C264.155 224.182 263.513 223.998 262.956 223.631C262.399 223.259 261.964 222.737 261.649 222.062C261.335 221.384 261.178 220.583 261.178 219.659C261.178 218.742 261.335 217.947 261.649 217.273C261.964 216.598 262.401 216.078 262.962 215.71C263.522 215.343 264.17 215.159 264.905 215.159C265.473 215.159 265.922 215.254 266.251 215.443C266.585 215.629 266.839 215.841 267.013 216.08C267.191 216.314 267.329 216.508 267.428 216.659H267.541V212.364H268.882V224H267.587V222.659H267.428C267.329 222.818 267.189 223.019 267.007 223.261C266.825 223.5 266.566 223.714 266.229 223.903C265.892 224.089 265.443 224.182 264.882 224.182ZM265.064 222.977C265.602 222.977 266.056 222.837 266.428 222.557C266.799 222.273 267.081 221.881 267.274 221.381C267.467 220.877 267.564 220.295 267.564 219.636C267.564 218.985 267.469 218.415 267.28 217.926C267.09 217.434 266.81 217.051 266.439 216.778C266.068 216.502 265.609 216.364 265.064 216.364C264.496 216.364 264.022 216.509 263.643 216.801C263.268 217.089 262.986 217.481 262.797 217.977C262.611 218.47 262.518 219.023 262.518 219.636C262.518 220.258 262.613 220.822 262.803 221.33C262.996 221.833 263.28 222.235 263.655 222.534C264.034 222.83 264.503 222.977 265.064 222.977ZM279.82 215.273V216.409H275.297V215.273H279.82ZM276.615 213.182H277.956V221.5C277.956 221.879 278.011 222.163 278.121 222.352C278.234 222.538 278.378 222.663 278.553 222.727C278.731 222.788 278.918 222.818 279.115 222.818C279.263 222.818 279.384 222.811 279.479 222.795C279.573 222.777 279.649 222.761 279.706 222.75L279.979 223.955C279.888 223.989 279.761 224.023 279.598 224.057C279.435 224.095 279.229 224.114 278.979 224.114C278.6 224.114 278.229 224.032 277.865 223.869C277.505 223.706 277.206 223.458 276.967 223.125C276.732 222.792 276.615 222.371 276.615 221.864V213.182ZM284.405 224.205C283.852 224.205 283.35 224.1 282.899 223.892C282.448 223.68 282.09 223.375 281.825 222.977C281.56 222.576 281.428 222.091 281.428 221.523C281.428 221.023 281.526 220.617 281.723 220.307C281.92 219.992 282.183 219.746 282.513 219.568C282.842 219.39 283.206 219.258 283.604 219.17C284.005 219.08 284.409 219.008 284.814 218.955C285.344 218.886 285.774 218.835 286.104 218.801C286.437 218.763 286.679 218.701 286.831 218.614C286.986 218.527 287.064 218.375 287.064 218.159V218.114C287.064 217.553 286.911 217.117 286.604 216.807C286.301 216.496 285.84 216.341 285.223 216.341C284.583 216.341 284.081 216.481 283.717 216.761C283.354 217.042 283.098 217.341 282.95 217.659L281.678 217.205C281.905 216.674 282.208 216.261 282.587 215.966C282.969 215.667 283.386 215.458 283.837 215.341C284.291 215.22 284.738 215.159 285.178 215.159C285.458 215.159 285.78 215.193 286.143 215.261C286.511 215.326 286.865 215.46 287.206 215.665C287.551 215.869 287.837 216.178 288.064 216.591C288.291 217.004 288.405 217.557 288.405 218.25V224H287.064V222.818H286.996C286.905 223.008 286.753 223.21 286.541 223.426C286.329 223.642 286.047 223.826 285.695 223.977C285.342 224.129 284.912 224.205 284.405 224.205ZM284.609 223C285.14 223 285.587 222.896 285.95 222.688C286.318 222.479 286.594 222.21 286.78 221.881C286.969 221.551 287.064 221.205 287.064 220.841V219.614C287.007 219.682 286.882 219.744 286.689 219.801C286.5 219.854 286.28 219.902 286.03 219.943C285.784 219.981 285.543 220.015 285.308 220.045C285.077 220.072 284.89 220.095 284.746 220.114C284.397 220.159 284.071 220.233 283.768 220.335C283.469 220.434 283.227 220.583 283.041 220.784C282.859 220.981 282.768 221.25 282.768 221.591C282.768 222.057 282.941 222.409 283.286 222.648C283.634 222.883 284.075 223 284.609 223ZM292.102 220.818L292.08 219.159H292.352L296.17 215.273H297.83L293.761 219.386H293.648L292.102 220.818ZM290.852 224V212.364H292.193V224H290.852ZM296.398 224L292.989 219.682L293.943 218.75L298.102 224H296.398ZM302.855 224.182C302.014 224.182 301.289 223.996 300.679 223.625C300.073 223.25 299.605 222.727 299.276 222.057C298.95 221.383 298.787 220.598 298.787 219.705C298.787 218.811 298.95 218.023 299.276 217.341C299.605 216.655 300.063 216.121 300.651 215.739C301.241 215.352 301.931 215.159 302.719 215.159C303.173 215.159 303.622 215.235 304.065 215.386C304.509 215.538 304.912 215.784 305.276 216.125C305.639 216.462 305.929 216.909 306.145 217.466C306.361 218.023 306.469 218.708 306.469 219.523V220.091H299.741V218.932H305.105C305.105 218.439 305.007 218 304.81 217.614C304.616 217.227 304.34 216.922 303.98 216.699C303.624 216.475 303.204 216.364 302.719 216.364C302.185 216.364 301.723 216.496 301.332 216.761C300.946 217.023 300.649 217.364 300.44 217.784C300.232 218.205 300.128 218.655 300.128 219.136V219.909C300.128 220.568 300.241 221.127 300.469 221.585C300.7 222.04 301.02 222.386 301.429 222.625C301.838 222.86 302.313 222.977 302.855 222.977C303.207 222.977 303.526 222.928 303.81 222.83C304.098 222.727 304.346 222.576 304.554 222.375C304.762 222.17 304.923 221.917 305.037 221.614L306.332 221.977C306.196 222.417 305.967 222.803 305.645 223.136C305.323 223.466 304.925 223.723 304.452 223.909C303.978 224.091 303.446 224.182 302.855 224.182ZM313.872 227.273C313.645 227.273 313.442 227.254 313.264 227.216C313.086 227.182 312.963 227.148 312.895 227.114L313.236 225.932C313.562 226.015 313.849 226.045 314.099 226.023C314.349 226 314.571 225.888 314.764 225.688C314.961 225.491 315.141 225.17 315.304 224.727L315.554 224.045L312.327 215.273H313.781L316.19 222.227H316.281L318.69 215.273H320.145L316.44 225.273C316.274 225.723 316.067 226.097 315.821 226.392C315.575 226.691 315.289 226.913 314.963 227.057C314.641 227.201 314.277 227.273 313.872 227.273ZM325.148 224.182C324.36 224.182 323.669 223.994 323.074 223.619C322.483 223.244 322.021 222.72 321.688 222.045C321.358 221.371 321.193 220.583 321.193 219.682C321.193 218.773 321.358 217.979 321.688 217.301C322.021 216.623 322.483 216.097 323.074 215.722C323.669 215.347 324.36 215.159 325.148 215.159C325.936 215.159 326.625 215.347 327.216 215.722C327.811 216.097 328.273 216.623 328.602 217.301C328.936 217.979 329.102 218.773 329.102 219.682C329.102 220.583 328.936 221.371 328.602 222.045C328.273 222.72 327.811 223.244 327.216 223.619C326.625 223.994 325.936 224.182 325.148 224.182ZM325.148 222.977C325.746 222.977 326.239 222.824 326.625 222.517C327.011 222.21 327.297 221.807 327.483 221.307C327.669 220.807 327.761 220.265 327.761 219.682C327.761 219.098 327.669 218.555 327.483 218.051C327.297 217.547 327.011 217.14 326.625 216.83C326.239 216.519 325.746 216.364 325.148 216.364C324.549 216.364 324.057 216.519 323.67 216.83C323.284 217.14 322.998 217.547 322.812 218.051C322.627 218.555 322.534 219.098 322.534 219.682C322.534 220.265 322.627 220.807 322.812 221.307C322.998 221.807 323.284 222.21 323.67 222.517C324.057 222.824 324.549 222.977 325.148 222.977ZM336.649 220.432V215.273H337.99V224H336.649V222.523H336.558C336.354 222.966 336.036 223.343 335.604 223.653C335.172 223.96 334.626 224.114 333.967 224.114C333.422 224.114 332.937 223.994 332.513 223.756C332.089 223.513 331.755 223.15 331.513 222.665C331.27 222.176 331.149 221.561 331.149 220.818V215.273H332.49V220.727C332.49 221.364 332.668 221.871 333.024 222.25C333.384 222.629 333.842 222.818 334.399 222.818C334.732 222.818 335.071 222.733 335.416 222.562C335.765 222.392 336.056 222.131 336.291 221.778C336.53 221.426 336.649 220.977 336.649 220.432ZM348.741 215.273V216.409H344.219V215.273H348.741ZM345.537 213.182H346.878V221.5C346.878 221.879 346.933 222.163 347.043 222.352C347.156 222.538 347.3 222.663 347.474 222.727C347.652 222.788 347.84 222.818 348.037 222.818C348.185 222.818 348.306 222.811 348.401 222.795C348.495 222.777 348.571 222.761 348.628 222.75L348.901 223.955C348.81 223.989 348.683 224.023 348.52 224.057C348.357 224.095 348.151 224.114 347.901 224.114C347.522 224.114 347.151 224.032 346.787 223.869C346.427 223.706 346.128 223.458 345.889 223.125C345.654 222.792 345.537 222.371 345.537 221.864V213.182ZM354.21 224.182C353.422 224.182 352.731 223.994 352.136 223.619C351.545 223.244 351.083 222.72 350.75 222.045C350.42 221.371 350.256 220.583 350.256 219.682C350.256 218.773 350.42 217.979 350.75 217.301C351.083 216.623 351.545 216.097 352.136 215.722C352.731 215.347 353.422 215.159 354.21 215.159C354.998 215.159 355.688 215.347 356.278 215.722C356.873 216.097 357.335 216.623 357.665 217.301C357.998 217.979 358.165 218.773 358.165 219.682C358.165 220.583 357.998 221.371 357.665 222.045C357.335 222.72 356.873 223.244 356.278 223.619C355.688 223.994 354.998 224.182 354.21 224.182ZM354.21 222.977C354.809 222.977 355.301 222.824 355.688 222.517C356.074 222.21 356.36 221.807 356.545 221.307C356.731 220.807 356.824 220.265 356.824 219.682C356.824 219.098 356.731 218.555 356.545 218.051C356.36 217.547 356.074 217.14 355.688 216.83C355.301 216.519 354.809 216.364 354.21 216.364C353.612 216.364 353.119 216.519 352.733 216.83C352.347 217.14 352.061 217.547 351.875 218.051C351.689 218.555 351.597 219.098 351.597 219.682C351.597 220.265 351.689 220.807 351.875 221.307C352.061 221.807 352.347 222.21 352.733 222.517C353.119 222.824 353.612 222.977 354.21 222.977ZM15.0227 234.273V235.409H10.5V234.273H15.0227ZM11.8182 232.182H13.1591V240.5C13.1591 240.879 13.214 241.163 13.3239 241.352C13.4375 241.538 13.5814 241.663 13.7557 241.727C13.9337 241.788 14.1212 241.818 14.3182 241.818C14.4659 241.818 14.5871 241.811 14.6818 241.795C14.7765 241.777 14.8523 241.761 14.9091 241.75L15.1818 242.955C15.0909 242.989 14.964 243.023 14.8011 243.057C14.6383 243.095 14.4318 243.114 14.1818 243.114C13.803 243.114 13.4318 243.032 13.0682 242.869C12.7083 242.706 12.4091 242.458 12.1705 242.125C11.9356 241.792 11.8182 241.371 11.8182 240.864V232.182ZM18.5682 237.75V243H17.2273V231.364H18.5682V235.636H18.6818C18.8864 235.186 19.1932 234.828 19.6023 234.562C20.0152 234.294 20.5644 234.159 21.25 234.159C21.8447 234.159 22.3655 234.278 22.8125 234.517C23.2595 234.752 23.6061 235.114 23.8523 235.602C24.1023 236.087 24.2273 236.705 24.2273 237.455V243H22.8864V237.545C22.8864 236.852 22.7064 236.316 22.3466 235.938C21.9905 235.555 21.4962 235.364 20.8636 235.364C20.4242 235.364 20.0303 235.456 19.6818 235.642C19.3371 235.828 19.0644 236.098 18.8636 236.455C18.6667 236.811 18.5682 237.242 18.5682 237.75ZM30.3395 243.182C29.4986 243.182 28.7732 242.996 28.1634 242.625C27.5573 242.25 27.0895 241.727 26.7599 241.057C26.4342 240.383 26.2713 239.598 26.2713 238.705C26.2713 237.811 26.4342 237.023 26.7599 236.341C27.0895 235.655 27.5478 235.121 28.1349 234.739C28.7259 234.352 29.4152 234.159 30.2031 234.159C30.6577 234.159 31.1065 234.235 31.5497 234.386C31.9929 234.538 32.3963 234.784 32.7599 235.125C33.1236 235.462 33.4134 235.909 33.6293 236.466C33.8452 237.023 33.9531 237.708 33.9531 238.523V239.091H27.2259V237.932H32.5895C32.5895 237.439 32.491 237 32.294 236.614C32.1009 236.227 31.8243 235.922 31.4645 235.699C31.1084 235.475 30.688 235.364 30.2031 235.364C29.669 235.364 29.2069 235.496 28.8168 235.761C28.4304 236.023 28.133 236.364 27.9247 236.784C27.7164 237.205 27.6122 237.655 27.6122 238.136V238.909C27.6122 239.568 27.7259 240.127 27.9531 240.585C28.1842 241.04 28.5043 241.386 28.9134 241.625C29.3224 241.86 29.7978 241.977 30.3395 241.977C30.6918 241.977 31.0099 241.928 31.294 241.83C31.5819 241.727 31.83 241.576 32.0384 241.375C32.2467 241.17 32.4077 240.917 32.5213 240.614L33.8168 240.977C33.6804 241.417 33.4512 241.803 33.1293 242.136C32.8073 242.466 32.4096 242.723 31.9361 242.909C31.4626 243.091 30.9304 243.182 30.3395 243.182ZM47.0384 234.273C46.9702 233.697 46.6937 233.25 46.2088 232.932C45.724 232.614 45.1293 232.455 44.4247 232.455C43.9096 232.455 43.4588 232.538 43.0724 232.705C42.6899 232.871 42.3906 233.1 42.1747 233.392C41.9626 233.684 41.8565 234.015 41.8565 234.386C41.8565 234.697 41.9304 234.964 42.0781 235.188C42.2296 235.407 42.4228 235.591 42.6577 235.739C42.8925 235.883 43.1387 236.002 43.3963 236.097C43.6539 236.187 43.8906 236.261 44.1065 236.318L45.2884 236.636C45.5914 236.716 45.9285 236.826 46.2997 236.966C46.6747 237.106 47.0327 237.297 47.3736 237.54C47.7183 237.778 48.0024 238.085 48.2259 238.46C48.4493 238.835 48.5611 239.295 48.5611 239.841C48.5611 240.47 48.3963 241.038 48.0668 241.545C47.741 242.053 47.2637 242.456 46.6349 242.756C46.0099 243.055 45.2505 243.205 44.3565 243.205C43.5232 243.205 42.8016 243.07 42.1918 242.801C41.5857 242.532 41.1084 242.157 40.7599 241.676C40.4152 241.195 40.2202 240.636 40.1747 240H41.6293C41.6671 240.439 41.8149 240.803 42.0724 241.091C42.3338 241.375 42.6634 241.587 43.0611 241.727C43.4626 241.864 43.8944 241.932 44.3565 241.932C44.8944 241.932 45.3774 241.845 45.8054 241.67C46.2334 241.492 46.5724 241.246 46.8224 240.932C47.0724 240.614 47.1974 240.242 47.1974 239.818C47.1974 239.432 47.0895 239.117 46.8736 238.875C46.6577 238.633 46.3736 238.436 46.0213 238.284C45.669 238.133 45.2884 238 44.8793 237.886L43.4474 237.477C42.5384 237.216 41.8187 236.843 41.2884 236.358C40.758 235.873 40.4929 235.239 40.4929 234.455C40.4929 233.803 40.669 233.235 41.0213 232.75C41.3774 232.261 41.8546 231.883 42.4531 231.614C43.0554 231.341 43.7277 231.205 44.4702 231.205C45.2202 231.205 45.8868 231.339 46.4702 231.608C47.0535 231.873 47.5156 232.237 47.8565 232.699C48.2012 233.161 48.383 233.686 48.402 234.273H47.0384ZM50.696 243V234.273H52.0369V243H50.696ZM51.3778 232.818C51.1165 232.818 50.8911 232.729 50.7017 232.551C50.5161 232.373 50.4233 232.159 50.4233 231.909C50.4233 231.659 50.5161 231.445 50.7017 231.267C50.8911 231.089 51.1165 231 51.3778 231C51.6392 231 51.8627 231.089 52.0483 231.267C52.2377 231.445 52.3324 231.659 52.3324 231.909C52.3324 232.159 52.2377 232.373 52.0483 232.551C51.8627 232.729 51.6392 232.818 51.3778 232.818ZM58.0156 246.455C57.3679 246.455 56.8111 246.371 56.3452 246.205C55.8793 246.042 55.491 245.826 55.1804 245.557C54.8736 245.292 54.6293 245.008 54.4474 244.705L55.5156 243.955C55.6368 244.114 55.7902 244.295 55.9759 244.5C56.1615 244.708 56.4152 244.888 56.7372 245.04C57.063 245.195 57.4891 245.273 58.0156 245.273C58.7202 245.273 59.3016 245.102 59.7599 244.761C60.2183 244.42 60.4474 243.886 60.4474 243.159V241.386H60.3338C60.2353 241.545 60.0952 241.742 59.9134 241.977C59.7353 242.208 59.4777 242.415 59.1406 242.597C58.8073 242.775 58.3565 242.864 57.7884 242.864C57.0838 242.864 56.4512 242.697 55.8906 242.364C55.3338 242.03 54.8925 241.545 54.5668 240.909C54.2448 240.273 54.0838 239.5 54.0838 238.591C54.0838 237.697 54.241 236.919 54.5554 236.256C54.8698 235.589 55.3073 235.074 55.8679 234.71C56.4285 234.343 57.0762 234.159 57.8111 234.159C58.3793 234.159 58.83 234.254 59.1634 234.443C59.5005 234.629 59.758 234.841 59.9361 235.08C60.1179 235.314 60.258 235.508 60.3565 235.659H60.4929V234.273H61.7884V243.25C61.7884 244 61.6179 244.61 61.277 245.08C60.9399 245.553 60.4853 245.9 59.9134 246.119C59.3452 246.343 58.7126 246.455 58.0156 246.455ZM57.9702 241.659C58.508 241.659 58.9626 241.536 59.3338 241.29C59.705 241.044 59.9872 240.689 60.1804 240.227C60.3736 239.765 60.4702 239.212 60.4702 238.568C60.4702 237.939 60.3755 237.384 60.1861 236.903C59.9967 236.422 59.7164 236.045 59.3452 235.773C58.974 235.5 58.5156 235.364 57.9702 235.364C57.402 235.364 56.9285 235.508 56.5497 235.795C56.1747 236.083 55.8925 236.47 55.7031 236.955C55.5175 237.439 55.4247 237.977 55.4247 238.568C55.4247 239.174 55.5194 239.71 55.7088 240.176C55.902 240.638 56.1861 241.002 56.5611 241.267C56.9399 241.528 57.4096 241.659 57.9702 241.659ZM65.5838 237.75V243H64.2429V234.273H65.5384V235.636H65.652C65.8565 235.193 66.1671 234.837 66.5838 234.568C67.0005 234.295 67.5384 234.159 68.1974 234.159C68.7884 234.159 69.3054 234.28 69.7486 234.523C70.1918 234.761 70.5365 235.125 70.7827 235.614C71.0289 236.098 71.152 236.712 71.152 237.455V243H69.8111V237.545C69.8111 236.86 69.633 236.326 69.277 235.943C68.9209 235.557 68.4323 235.364 67.8111 235.364C67.383 235.364 67.0005 235.456 66.6634 235.642C66.33 235.828 66.0668 236.098 65.8736 236.455C65.6804 236.811 65.5838 237.242 65.5838 237.75ZM85.9205 231.364H87.3295V239.068C87.3295 239.864 87.142 240.574 86.767 241.199C86.3958 241.82 85.8712 242.311 85.1932 242.67C84.5152 243.027 83.7197 243.205 82.8068 243.205C81.8939 243.205 81.0985 243.027 80.4205 242.67C79.7424 242.311 79.2159 241.82 78.8409 241.199C78.4697 240.574 78.2841 239.864 78.2841 239.068V231.364H79.6932V238.955C79.6932 239.523 79.8182 240.028 80.0682 240.472C80.3182 240.911 80.6742 241.258 81.1364 241.511C81.6023 241.761 82.1591 241.886 82.8068 241.886C83.4545 241.886 84.0114 241.761 84.4773 241.511C84.9432 241.258 85.2992 240.911 85.5455 240.472C85.7955 240.028 85.9205 239.523 85.9205 238.955V231.364ZM89.9616 246.273V234.273H91.2571V235.659H91.4162C91.5147 235.508 91.651 235.314 91.8253 235.08C92.0033 234.841 92.2571 234.629 92.5866 234.443C92.92 234.254 93.3707 234.159 93.9389 234.159C94.6738 234.159 95.3215 234.343 95.8821 234.71C96.4427 235.078 96.8802 235.598 97.1946 236.273C97.509 236.947 97.6662 237.742 97.6662 238.659C97.6662 239.583 97.509 240.384 97.1946 241.062C96.8802 241.737 96.4446 242.259 95.8878 242.631C95.331 242.998 94.6889 243.182 93.9616 243.182C93.401 243.182 92.9522 243.089 92.6151 242.903C92.2779 242.714 92.0185 242.5 91.8366 242.261C91.6548 242.019 91.5147 241.818 91.4162 241.659H91.3026V246.273H89.9616ZM91.2798 238.636C91.2798 239.295 91.3764 239.877 91.5696 240.381C91.7628 240.881 92.045 241.273 92.4162 241.557C92.7874 241.837 93.242 241.977 93.7798 241.977C94.3404 241.977 94.8082 241.83 95.1832 241.534C95.562 241.235 95.8461 240.833 96.0355 240.33C96.2287 239.822 96.3253 239.258 96.3253 238.636C96.3253 238.023 96.2306 237.47 96.0412 236.977C95.8556 236.481 95.5734 236.089 95.1946 235.801C94.8196 235.509 94.348 235.364 93.7798 235.364C93.2344 235.364 92.776 235.502 92.4048 235.778C92.0336 236.051 91.7533 236.434 91.5639 236.926C91.3745 237.415 91.2798 237.985 91.2798 238.636ZM108.712 246.273V234.273H110.007V235.659H110.166C110.265 235.508 110.401 235.314 110.575 235.08C110.753 234.841 111.007 234.629 111.337 234.443C111.67 234.254 112.121 234.159 112.689 234.159C113.424 234.159 114.071 234.343 114.632 234.71C115.193 235.078 115.63 235.598 115.945 236.273C116.259 236.947 116.416 237.742 116.416 238.659C116.416 239.583 116.259 240.384 115.945 241.062C115.63 241.737 115.195 242.259 114.638 242.631C114.081 242.998 113.439 243.182 112.712 243.182C112.151 243.182 111.702 243.089 111.365 242.903C111.028 242.714 110.768 242.5 110.587 242.261C110.405 242.019 110.265 241.818 110.166 241.659H110.053V246.273H108.712ZM110.03 238.636C110.03 239.295 110.126 239.877 110.32 240.381C110.513 240.881 110.795 241.273 111.166 241.557C111.537 241.837 111.992 241.977 112.53 241.977C113.09 241.977 113.558 241.83 113.933 241.534C114.312 241.235 114.596 240.833 114.786 240.33C114.979 239.822 115.075 239.258 115.075 238.636C115.075 238.023 114.981 237.47 114.791 236.977C114.606 236.481 114.323 236.089 113.945 235.801C113.57 235.509 113.098 235.364 112.53 235.364C111.984 235.364 111.526 235.502 111.155 235.778C110.784 236.051 110.503 236.434 110.314 236.926C110.125 237.415 110.03 237.985 110.03 238.636ZM121.03 243.205C120.477 243.205 119.975 243.1 119.524 242.892C119.073 242.68 118.715 242.375 118.45 241.977C118.185 241.576 118.053 241.091 118.053 240.523C118.053 240.023 118.151 239.617 118.348 239.307C118.545 238.992 118.808 238.746 119.138 238.568C119.467 238.39 119.831 238.258 120.229 238.17C120.63 238.08 121.034 238.008 121.439 237.955C121.969 237.886 122.399 237.835 122.729 237.801C123.062 237.763 123.304 237.701 123.456 237.614C123.611 237.527 123.689 237.375 123.689 237.159V237.114C123.689 236.553 123.536 236.117 123.229 235.807C122.926 235.496 122.465 235.341 121.848 235.341C121.208 235.341 120.706 235.481 120.342 235.761C119.979 236.042 119.723 236.341 119.575 236.659L118.303 236.205C118.53 235.674 118.833 235.261 119.212 234.966C119.594 234.667 120.011 234.458 120.462 234.341C120.916 234.22 121.363 234.159 121.803 234.159C122.083 234.159 122.405 234.193 122.768 234.261C123.136 234.326 123.49 234.46 123.831 234.665C124.176 234.869 124.462 235.178 124.689 235.591C124.916 236.004 125.03 236.557 125.03 237.25V243H123.689V241.818H123.621C123.53 242.008 123.378 242.21 123.166 242.426C122.954 242.642 122.672 242.826 122.32 242.977C121.967 243.129 121.537 243.205 121.03 243.205ZM121.234 242C121.765 242 122.212 241.896 122.575 241.688C122.943 241.479 123.219 241.21 123.405 240.881C123.594 240.551 123.689 240.205 123.689 239.841V238.614C123.632 238.682 123.507 238.744 123.314 238.801C123.125 238.854 122.905 238.902 122.655 238.943C122.409 238.981 122.168 239.015 121.933 239.045C121.702 239.072 121.515 239.095 121.371 239.114C121.022 239.159 120.696 239.233 120.393 239.335C120.094 239.434 119.852 239.583 119.666 239.784C119.484 239.981 119.393 240.25 119.393 240.591C119.393 241.057 119.566 241.409 119.911 241.648C120.259 241.883 120.7 242 121.234 242ZM131 246.455C130.352 246.455 129.795 246.371 129.33 246.205C128.864 246.042 128.475 245.826 128.165 245.557C127.858 245.292 127.614 245.008 127.432 244.705L128.5 243.955C128.621 244.114 128.775 244.295 128.96 244.5C129.146 244.708 129.4 244.888 129.722 245.04C130.047 245.195 130.473 245.273 131 245.273C131.705 245.273 132.286 245.102 132.744 244.761C133.203 244.42 133.432 243.886 133.432 243.159V241.386H133.318C133.22 241.545 133.08 241.742 132.898 241.977C132.72 242.208 132.462 242.415 132.125 242.597C131.792 242.775 131.341 242.864 130.773 242.864C130.068 242.864 129.436 242.697 128.875 242.364C128.318 242.03 127.877 241.545 127.551 240.909C127.229 240.273 127.068 239.5 127.068 238.591C127.068 237.697 127.225 236.919 127.54 236.256C127.854 235.589 128.292 235.074 128.852 234.71C129.413 234.343 130.061 234.159 130.795 234.159C131.364 234.159 131.814 234.254 132.148 234.443C132.485 234.629 132.742 234.841 132.92 235.08C133.102 235.314 133.242 235.508 133.341 235.659H133.477V234.273H134.773V243.25C134.773 244 134.602 244.61 134.261 245.08C133.924 245.553 133.47 245.9 132.898 246.119C132.33 246.343 131.697 246.455 131 246.455ZM130.955 241.659C131.492 241.659 131.947 241.536 132.318 241.29C132.689 241.044 132.972 240.689 133.165 240.227C133.358 239.765 133.455 239.212 133.455 238.568C133.455 237.939 133.36 237.384 133.17 236.903C132.981 236.422 132.701 236.045 132.33 235.773C131.958 235.5 131.5 235.364 130.955 235.364C130.386 235.364 129.913 235.508 129.534 235.795C129.159 236.083 128.877 236.47 128.688 236.955C128.502 237.439 128.409 237.977 128.409 238.568C128.409 239.174 128.504 239.71 128.693 240.176C128.886 240.638 129.17 241.002 129.545 241.267C129.924 241.528 130.394 241.659 130.955 241.659ZM140.886 243.182C140.045 243.182 139.32 242.996 138.71 242.625C138.104 242.25 137.636 241.727 137.307 241.057C136.981 240.383 136.818 239.598 136.818 238.705C136.818 237.811 136.981 237.023 137.307 236.341C137.636 235.655 138.095 235.121 138.682 234.739C139.273 234.352 139.962 234.159 140.75 234.159C141.205 234.159 141.653 234.235 142.097 234.386C142.54 234.538 142.943 234.784 143.307 235.125C143.67 235.462 143.96 235.909 144.176 236.466C144.392 237.023 144.5 237.708 144.5 238.523V239.091H137.773V237.932H143.136C143.136 237.439 143.038 237 142.841 236.614C142.648 236.227 142.371 235.922 142.011 235.699C141.655 235.475 141.235 235.364 140.75 235.364C140.216 235.364 139.754 235.496 139.364 235.761C138.977 236.023 138.68 236.364 138.472 236.784C138.263 237.205 138.159 237.655 138.159 238.136V238.909C138.159 239.568 138.273 240.127 138.5 240.585C138.731 241.04 139.051 241.386 139.46 241.625C139.869 241.86 140.345 241.977 140.886 241.977C141.239 241.977 141.557 241.928 141.841 241.83C142.129 241.727 142.377 241.576 142.585 241.375C142.794 241.17 142.955 240.917 143.068 240.614L144.364 240.977C144.227 241.417 143.998 241.803 143.676 242.136C143.354 242.466 142.956 242.723 142.483 242.909C142.009 243.091 141.477 243.182 140.886 243.182Z" fill="#898585"/>
</svg>
