<svg width="385" height="344" viewBox="0 0 385 344" fill="none" xmlns="http://www.w3.org/2000/svg">
<rect x="0.5" y="0.5" width="384" height="343" rx="14.5" fill="white"/>
<rect x="0.5" y="0.5" width="384" height="343" rx="14.5" stroke="#075418"/>
<path d="M24.6477 44.9205C24.5568 44.0038 24.1667 43.2917 23.4773 42.7841C22.7879 42.2765 21.8523 42.0227 20.6705 42.0227C19.8674 42.0227 19.1894 42.1364 18.6364 42.3636C18.0833 42.5833 17.6591 42.8902 17.3636 43.2841C17.0758 43.678 16.9318 44.125 16.9318 44.625C16.9167 45.0417 17.0038 45.4053 17.1932 45.7159C17.3902 46.0265 17.6591 46.2955 18 46.5227C18.3409 46.7424 18.7348 46.9356 19.1818 47.1023C19.6288 47.2614 20.1061 47.3977 20.6136 47.5114L22.7045 48.0114C23.7197 48.2386 24.6515 48.5417 25.5 48.9205C26.3485 49.2992 27.0833 49.7652 27.7045 50.3182C28.3258 50.8712 28.8068 51.5227 29.1477 52.2727C29.4962 53.0227 29.6742 53.8826 29.6818 54.8523C29.6742 56.2765 29.3106 57.5114 28.5909 58.5568C27.8788 59.5947 26.8485 60.4015 25.5 60.9773C24.1591 61.5455 22.5417 61.8295 20.6477 61.8295C18.7689 61.8295 17.1326 61.5417 15.7386 60.9659C14.3523 60.3902 13.2689 59.5379 12.4886 58.4091C11.7159 57.2727 11.3106 55.8674 11.2727 54.1932H16.0341C16.0871 54.9735 16.3106 55.625 16.7045 56.1477C17.1061 56.6629 17.6402 57.053 18.3068 57.3182C18.9811 57.5758 19.7424 57.7045 20.5909 57.7045C21.4242 57.7045 22.1477 57.5833 22.7614 57.3409C23.3826 57.0985 23.8636 56.7614 24.2045 56.3295C24.5455 55.8977 24.7159 55.4015 24.7159 54.8409C24.7159 54.3182 24.5606 53.8788 24.25 53.5227C23.947 53.1667 23.5 52.8636 22.9091 52.6136C22.3258 52.3636 21.6098 52.1364 20.7614 51.9318L18.2273 51.2955C16.2652 50.8182 14.7159 50.072 13.5795 49.0568C12.4432 48.0417 11.8788 46.6742 11.8864 44.9545C11.8788 43.5455 12.2538 42.3144 13.0114 41.2614C13.7765 40.2083 14.8258 39.3864 16.1591 38.7955C17.4924 38.2045 19.0076 37.9091 20.7045 37.9091C22.4318 37.9091 23.9394 38.2045 25.2273 38.7955C26.5227 39.3864 27.5303 40.2083 28.25 41.2614C28.9697 42.3144 29.3409 43.5341 29.3636 44.9205H24.6477ZM42.1847 44.0455V47.6818H31.6733V44.0455H42.1847ZM34.0597 39.8636H38.9006V56.1364C38.9006 56.5833 38.9688 56.9318 39.1051 57.1818C39.2415 57.4242 39.4309 57.5947 39.6733 57.6932C39.9233 57.7917 40.2112 57.8409 40.5369 57.8409C40.7642 57.8409 40.9915 57.822 41.2188 57.7841C41.446 57.7386 41.6203 57.7045 41.7415 57.6818L42.5028 61.2841C42.2604 61.3598 41.9195 61.447 41.4801 61.5455C41.0407 61.6515 40.5066 61.7159 39.8778 61.7386C38.7112 61.7841 37.6884 61.6288 36.8097 61.2727C35.9384 60.9167 35.2604 60.3636 34.7756 59.6136C34.2907 58.8636 34.0521 57.9167 34.0597 56.7727V39.8636ZM53.1051 61.8409C51.3097 61.8409 49.7642 61.4773 48.4688 60.75C47.1809 60.0152 46.1884 58.9773 45.4915 57.6364C44.7945 56.2879 44.446 54.6932 44.446 52.8523C44.446 51.0568 44.7945 49.4811 45.4915 48.125C46.1884 46.7689 47.1695 45.7121 48.4347 44.9545C49.7074 44.197 51.1998 43.8182 52.9119 43.8182C54.0634 43.8182 55.1354 44.0038 56.1278 44.375C57.1278 44.7386 57.9991 45.2879 58.7415 46.0227C59.4915 46.7576 60.0748 47.6818 60.4915 48.7955C60.9081 49.9015 61.1165 51.197 61.1165 52.6818V54.0114H46.3778V51.0114H56.5597C56.5597 50.3144 56.4081 49.697 56.1051 49.1591C55.8021 48.6212 55.3816 48.2008 54.8438 47.8977C54.3134 47.5871 53.696 47.4318 52.9915 47.4318C52.2566 47.4318 51.6051 47.6023 51.0369 47.9432C50.4763 48.2765 50.0369 48.7273 49.7188 49.2955C49.4006 49.8561 49.2377 50.4811 49.2301 51.1705V54.0227C49.2301 54.8864 49.3892 55.6326 49.7074 56.2614C50.0331 56.8902 50.4915 57.375 51.0824 57.7159C51.6733 58.0568 52.3741 58.2273 53.1847 58.2273C53.7225 58.2273 54.215 58.1515 54.6619 58C55.1089 57.8485 55.4915 57.6212 55.8097 57.3182C56.1278 57.0152 56.3703 56.6439 56.5369 56.2045L61.0142 56.5C60.7869 57.5758 60.321 58.5152 59.6165 59.3182C58.9195 60.1136 58.018 60.7348 56.9119 61.1818C55.8134 61.6212 54.5445 61.8409 53.1051 61.8409ZM64.2756 68.0455V44.0455H69.0483V46.9773H69.2642C69.4763 46.5076 69.7831 46.0303 70.1847 45.5455C70.5938 45.053 71.1241 44.6439 71.7756 44.3182C72.4347 43.9848 73.2528 43.8182 74.2301 43.8182C75.5028 43.8182 76.6771 44.1515 77.7528 44.8182C78.8286 45.4773 79.6884 46.4735 80.3324 47.8068C80.9763 49.1326 81.2983 50.7955 81.2983 52.7955C81.2983 54.7424 80.9839 56.3864 80.3551 57.7273C79.7339 59.0606 78.8854 60.072 77.8097 60.7614C76.7415 61.4432 75.5445 61.7841 74.2188 61.7841C73.2794 61.7841 72.4801 61.6288 71.821 61.3182C71.1695 61.0076 70.6354 60.6174 70.2188 60.1477C69.8021 59.6705 69.4839 59.1894 69.2642 58.7045H69.1165V68.0455H64.2756ZM69.0142 52.7727C69.0142 53.8106 69.1581 54.7159 69.446 55.4886C69.7339 56.2614 70.1506 56.8636 70.696 57.2955C71.2415 57.7197 71.9044 57.9318 72.6847 57.9318C73.4725 57.9318 74.1392 57.7159 74.6847 57.2841C75.2301 56.8447 75.643 56.2386 75.9233 55.4659C76.2112 54.6856 76.3551 53.7879 76.3551 52.7727C76.3551 51.7652 76.215 50.8788 75.9347 50.1136C75.6544 49.3485 75.2415 48.75 74.696 48.3182C74.1506 47.8864 73.4801 47.6705 72.6847 47.6705C71.8968 47.6705 71.2301 47.8788 70.6847 48.2955C70.1468 48.7121 69.7339 49.303 69.446 50.0682C69.1581 50.8333 69.0142 51.7348 69.0142 52.7727Z" fill="#075418"/>
<path d="M93 50C93 27.9086 110.909 10 133 10C155.091 10 173 27.9086 173 50C173 72.0914 155.091 90 133 90C110.909 90 93 72.0914 93 50Z" fill="#1E9044"/>
<path d="M126.415 58.5V55.8409L132.628 50.0881C133.156 49.5767 133.599 49.1165 133.957 48.7074C134.321 48.2983 134.597 47.8977 134.784 47.5057C134.972 47.108 135.065 46.679 135.065 46.2188C135.065 45.7074 134.949 45.267 134.716 44.8977C134.483 44.5227 134.165 44.2358 133.761 44.0369C133.358 43.8324 132.901 43.7301 132.389 43.7301C131.855 43.7301 131.389 43.8381 130.991 44.054C130.594 44.2699 130.287 44.5795 130.071 44.983C129.855 45.3864 129.747 45.8665 129.747 46.4233H126.244C126.244 45.2812 126.503 44.2898 127.02 43.4489C127.537 42.608 128.261 41.9574 129.193 41.4972C130.125 41.0369 131.199 40.8068 132.415 40.8068C133.665 40.8068 134.753 41.0284 135.679 41.4716C136.611 41.9091 137.335 42.517 137.852 43.2955C138.369 44.0739 138.628 44.9659 138.628 45.9716C138.628 46.6307 138.497 47.2812 138.236 47.9233C137.98 48.5653 137.523 49.2784 136.864 50.0625C136.205 50.8409 135.276 51.7756 134.077 52.8665L131.528 55.3636V55.483H138.858V58.5H126.415Z" fill="#F6F6F6"/>
<path d="M12.0227 191V167.727H27.4318V171.784H16.9432V177.33H26.4091V181.386H16.9432V191H12.0227ZM30.6506 191V173.545H35.4915V191H30.6506ZM33.0824 171.295C32.3627 171.295 31.7453 171.057 31.2301 170.58C30.7225 170.095 30.4688 169.515 30.4688 168.841C30.4688 168.174 30.7225 167.602 31.2301 167.125C31.7453 166.64 32.3627 166.398 33.0824 166.398C33.8021 166.398 34.4157 166.64 34.9233 167.125C35.4384 167.602 35.696 168.174 35.696 168.841C35.696 169.515 35.4384 170.095 34.9233 170.58C34.4157 171.057 33.8021 171.295 33.0824 171.295ZM44.2102 167.727V191H39.3693V167.727H44.2102ZM52.929 167.727V191H48.0881V167.727H52.929ZM63.4176 171.784V167.727H82.5312V171.784H75.4062V191H70.5426V171.784H63.4176ZM90.429 180.909V191H85.5881V167.727H90.2926V176.625H90.4972C90.8911 175.595 91.5275 174.788 92.4062 174.205C93.285 173.614 94.3873 173.318 95.7131 173.318C96.9252 173.318 97.982 173.583 98.8835 174.114C99.7926 174.636 100.497 175.39 100.997 176.375C101.505 177.352 101.755 178.523 101.747 179.886V191H96.9062V180.75C96.9138 179.674 96.6411 178.837 96.0881 178.239C95.5426 177.64 94.7775 177.341 93.7926 177.341C93.1335 177.341 92.5502 177.481 92.0426 177.761C91.5426 178.042 91.1487 178.451 90.8608 178.989C90.5805 179.519 90.4366 180.159 90.429 180.909ZM113.511 191.341C111.716 191.341 110.17 190.977 108.875 190.25C107.587 189.515 106.595 188.477 105.898 187.136C105.201 185.788 104.852 184.193 104.852 182.352C104.852 180.557 105.201 178.981 105.898 177.625C106.595 176.269 107.576 175.212 108.841 174.455C110.114 173.697 111.606 173.318 113.318 173.318C114.47 173.318 115.542 173.504 116.534 173.875C117.534 174.239 118.405 174.788 119.148 175.523C119.898 176.258 120.481 177.182 120.898 178.295C121.314 179.402 121.523 180.697 121.523 182.182V183.511H106.784V180.511H116.966C116.966 179.814 116.814 179.197 116.511 178.659C116.208 178.121 115.788 177.701 115.25 177.398C114.72 177.087 114.102 176.932 113.398 176.932C112.663 176.932 112.011 177.102 111.443 177.443C110.883 177.777 110.443 178.227 110.125 178.795C109.807 179.356 109.644 179.981 109.636 180.67V183.523C109.636 184.386 109.795 185.133 110.114 185.761C110.439 186.39 110.898 186.875 111.489 187.216C112.08 187.557 112.78 187.727 113.591 187.727C114.129 187.727 114.621 187.652 115.068 187.5C115.515 187.348 115.898 187.121 116.216 186.818C116.534 186.515 116.777 186.144 116.943 185.705L121.42 186C121.193 187.076 120.727 188.015 120.023 188.818C119.326 189.614 118.424 190.235 117.318 190.682C116.22 191.121 114.951 191.341 113.511 191.341ZM132.179 191V167.727H147.588V171.784H137.099V177.33H146.565V181.386H137.099V191H132.179ZM157.412 191.341C155.647 191.341 154.12 190.966 152.832 190.216C151.552 189.458 150.563 188.405 149.866 187.057C149.17 185.701 148.821 184.129 148.821 182.341C148.821 180.538 149.17 178.962 149.866 177.614C150.563 176.258 151.552 175.205 152.832 174.455C154.12 173.697 155.647 173.318 157.412 173.318C159.177 173.318 160.7 173.697 161.98 174.455C163.268 175.205 164.26 176.258 164.957 177.614C165.654 178.962 166.003 180.538 166.003 182.341C166.003 184.129 165.654 185.701 164.957 187.057C164.26 188.405 163.268 189.458 161.98 190.216C160.7 190.966 159.177 191.341 157.412 191.341ZM157.435 187.591C158.238 187.591 158.908 187.364 159.446 186.909C159.984 186.447 160.389 185.818 160.662 185.023C160.942 184.227 161.082 183.322 161.082 182.307C161.082 181.292 160.942 180.386 160.662 179.591C160.389 178.795 159.984 178.167 159.446 177.705C158.908 177.242 158.238 177.011 157.435 177.011C156.624 177.011 155.942 177.242 155.389 177.705C154.844 178.167 154.431 178.795 154.151 179.591C153.878 180.386 153.741 181.292 153.741 182.307C153.741 183.322 153.878 184.227 154.151 185.023C154.431 185.818 154.844 186.447 155.389 186.909C155.942 187.364 156.624 187.591 157.435 187.591ZM169.151 191V173.545H173.844V176.591H174.026C174.344 175.508 174.878 174.689 175.628 174.136C176.378 173.576 177.241 173.295 178.219 173.295C178.461 173.295 178.723 173.311 179.003 173.341C179.283 173.371 179.529 173.413 179.741 173.466V177.761C179.514 177.693 179.2 177.633 178.798 177.58C178.397 177.527 178.029 177.5 177.696 177.5C176.984 177.5 176.348 177.655 175.787 177.966C175.234 178.269 174.795 178.693 174.469 179.239C174.151 179.784 173.991 180.413 173.991 181.125V191H169.151ZM182.244 191V173.545H186.858V176.625H187.062C187.426 175.602 188.032 174.795 188.881 174.205C189.729 173.614 190.744 173.318 191.926 173.318C193.123 173.318 194.142 173.617 194.983 174.216C195.824 174.807 196.384 175.61 196.665 176.625H196.847C197.203 175.625 197.847 174.826 198.778 174.227C199.718 173.621 200.828 173.318 202.108 173.318C203.737 173.318 205.059 173.837 206.074 174.875C207.097 175.905 207.608 177.367 207.608 179.261V191H202.778V180.216C202.778 179.246 202.521 178.519 202.006 178.034C201.491 177.549 200.847 177.307 200.074 177.307C199.195 177.307 198.509 177.587 198.017 178.148C197.525 178.701 197.278 179.432 197.278 180.341V191H192.585V180.114C192.585 179.258 192.339 178.576 191.847 178.068C191.362 177.561 190.722 177.307 189.926 177.307C189.388 177.307 188.903 177.443 188.472 177.716C188.047 177.981 187.71 178.356 187.46 178.841C187.21 179.318 187.085 179.879 187.085 180.523V191H182.244Z" fill="#075418"/>
<path d="M11.4091 224V212.364H18.4318V213.614H12.8182V217.545H18.0682V218.795H12.8182V222.75H18.5227V224H11.4091ZM22.1307 218.75V224H20.7898V215.273H22.0852V216.636H22.1989C22.4034 216.193 22.714 215.837 23.1307 215.568C23.5473 215.295 24.0852 215.159 24.7443 215.159C25.3352 215.159 25.8523 215.28 26.2955 215.523C26.7386 215.761 27.0833 216.125 27.3295 216.614C27.5758 217.098 27.6989 217.712 27.6989 218.455V224H26.358V218.545C26.358 217.86 26.1799 217.326 25.8239 216.943C25.4678 216.557 24.9792 216.364 24.358 216.364C23.9299 216.364 23.5473 216.456 23.2102 216.642C22.8769 216.828 22.6136 217.098 22.4205 217.455C22.2273 217.811 22.1307 218.242 22.1307 218.75ZM33.9446 215.273V216.409H29.4219V215.273H33.9446ZM30.7401 213.182H32.081V221.5C32.081 221.879 32.1359 222.163 32.2457 222.352C32.3594 222.538 32.5033 222.663 32.6776 222.727C32.8556 222.788 33.0431 222.818 33.2401 222.818C33.3878 222.818 33.509 222.811 33.6037 222.795C33.6984 222.777 33.7741 222.761 33.831 222.75L34.1037 223.955C34.0128 223.989 33.8859 224.023 33.723 224.057C33.5601 224.095 33.3537 224.114 33.1037 224.114C32.7249 224.114 32.3537 224.032 31.9901 223.869C31.6302 223.706 31.331 223.458 31.0923 223.125C30.8575 222.792 30.7401 222.371 30.7401 221.864V213.182ZM39.527 224.182C38.6861 224.182 37.9607 223.996 37.3509 223.625C36.7448 223.25 36.277 222.727 35.9474 222.057C35.6217 221.383 35.4588 220.598 35.4588 219.705C35.4588 218.811 35.6217 218.023 35.9474 217.341C36.277 216.655 36.7353 216.121 37.3224 215.739C37.9134 215.352 38.6027 215.159 39.3906 215.159C39.8452 215.159 40.294 215.235 40.7372 215.386C41.1804 215.538 41.5838 215.784 41.9474 216.125C42.3111 216.462 42.6009 216.909 42.8168 217.466C43.0327 218.023 43.1406 218.708 43.1406 219.523V220.091H36.4134V218.932H41.777C41.777 218.439 41.6785 218 41.4815 217.614C41.2884 217.227 41.0118 216.922 40.652 216.699C40.2959 216.475 39.8755 216.364 39.3906 216.364C38.8565 216.364 38.3944 216.496 38.0043 216.761C37.6179 217.023 37.3205 217.364 37.1122 217.784C36.9039 218.205 36.7997 218.655 36.7997 219.136V219.909C36.7997 220.568 36.9134 221.127 37.1406 221.585C37.3717 222.04 37.6918 222.386 38.1009 222.625C38.5099 222.86 38.9853 222.977 39.527 222.977C39.8793 222.977 40.1974 222.928 40.4815 222.83C40.7694 222.727 41.0175 222.576 41.2259 222.375C41.4342 222.17 41.5952 221.917 41.7088 221.614L43.0043 221.977C42.8679 222.417 42.6387 222.803 42.3168 223.136C41.9948 223.466 41.5971 223.723 41.1236 223.909C40.6501 224.091 40.1179 224.182 39.527 224.182ZM45.1804 224V215.273H46.4759V216.591H46.5668C46.7259 216.159 47.0137 215.809 47.4304 215.54C47.8471 215.271 48.3168 215.136 48.8395 215.136C48.938 215.136 49.0611 215.138 49.2088 215.142C49.3565 215.146 49.4683 215.152 49.544 215.159V216.523C49.4986 216.511 49.3944 216.494 49.2315 216.472C49.0724 216.445 48.9039 216.432 48.7259 216.432C48.3016 216.432 47.9228 216.521 47.5895 216.699C47.2599 216.873 46.9986 217.116 46.8054 217.426C46.616 217.733 46.5213 218.083 46.5213 218.477V224H45.1804ZM59.429 215.273V216.409H54.9062V215.273H59.429ZM56.2244 213.182H57.5653V221.5C57.5653 221.879 57.6203 222.163 57.7301 222.352C57.8438 222.538 57.9877 222.663 58.1619 222.727C58.34 222.788 58.5275 222.818 58.7244 222.818C58.8722 222.818 58.9934 222.811 59.0881 222.795C59.1828 222.777 59.2585 222.761 59.3153 222.75L59.5881 223.955C59.4972 223.989 59.3703 224.023 59.2074 224.057C59.0445 224.095 58.8381 224.114 58.5881 224.114C58.2093 224.114 57.8381 224.032 57.4744 223.869C57.1146 223.706 56.8153 223.458 56.5767 223.125C56.3419 222.792 56.2244 222.371 56.2244 221.864V213.182ZM62.9744 218.75V224H61.6335V212.364H62.9744V216.636H63.0881C63.2926 216.186 63.5994 215.828 64.0085 215.562C64.4214 215.294 64.9706 215.159 65.6562 215.159C66.2509 215.159 66.7718 215.278 67.2188 215.517C67.6657 215.752 68.0123 216.114 68.2585 216.602C68.5085 217.087 68.6335 217.705 68.6335 218.455V224H67.2926V218.545C67.2926 217.852 67.1127 217.316 66.7528 216.938C66.3968 216.555 65.9025 216.364 65.2699 216.364C64.8305 216.364 64.4366 216.456 64.0881 216.642C63.7434 216.828 63.4706 217.098 63.2699 217.455C63.0729 217.811 62.9744 218.242 62.9744 218.75ZM74.7457 224.182C73.9048 224.182 73.1795 223.996 72.5696 223.625C71.9635 223.25 71.4957 222.727 71.1662 222.057C70.8404 221.383 70.6776 220.598 70.6776 219.705C70.6776 218.811 70.8404 218.023 71.1662 217.341C71.4957 216.655 71.9541 216.121 72.5412 215.739C73.1321 215.352 73.8215 215.159 74.6094 215.159C75.0639 215.159 75.5128 215.235 75.956 215.386C76.3991 215.538 76.8026 215.784 77.1662 216.125C77.5298 216.462 77.8196 216.909 78.0355 217.466C78.2514 218.023 78.3594 218.708 78.3594 219.523V220.091H71.6321V218.932H76.9957C76.9957 218.439 76.8973 218 76.7003 217.614C76.5071 217.227 76.2306 216.922 75.8707 216.699C75.5147 216.475 75.0942 216.364 74.6094 216.364C74.0753 216.364 73.6132 216.496 73.223 216.761C72.8366 217.023 72.5393 217.364 72.331 217.784C72.1226 218.205 72.0185 218.655 72.0185 219.136V219.909C72.0185 220.568 72.1321 221.127 72.3594 221.585C72.5904 222.04 72.9105 222.386 73.3196 222.625C73.7287 222.86 74.2041 222.977 74.7457 222.977C75.098 222.977 75.4162 222.928 75.7003 222.83C75.9882 222.727 76.2363 222.576 76.4446 222.375C76.6529 222.17 76.8139 221.917 76.9276 221.614L78.223 221.977C78.0866 222.417 77.8575 222.803 77.5355 223.136C77.2135 223.466 76.8158 223.723 76.3423 223.909C75.8688 224.091 75.3366 224.182 74.7457 224.182ZM94.4446 216H93.0355C92.9522 215.595 92.8063 215.239 92.598 214.932C92.3935 214.625 92.1435 214.367 91.848 214.159C91.5563 213.947 91.2325 213.788 90.8764 213.682C90.5204 213.576 90.1491 213.523 89.7628 213.523C89.0582 213.523 88.42 213.701 87.848 214.057C87.2798 214.413 86.8272 214.938 86.4901 215.631C86.1567 216.324 85.9901 217.174 85.9901 218.182C85.9901 219.189 86.1567 220.04 86.4901 220.733C86.8272 221.426 87.2798 221.951 87.848 222.307C88.42 222.663 89.0582 222.841 89.7628 222.841C90.1491 222.841 90.5204 222.788 90.8764 222.682C91.2325 222.576 91.5563 222.419 91.848 222.21C92.1435 221.998 92.3935 221.739 92.598 221.432C92.8063 221.121 92.9522 220.765 93.0355 220.364H94.4446C94.3385 220.958 94.1454 221.491 93.8651 221.96C93.5848 222.43 93.2363 222.83 92.8196 223.159C92.4029 223.485 91.9351 223.733 91.4162 223.903C90.901 224.074 90.3499 224.159 89.7628 224.159C88.7704 224.159 87.8878 223.917 87.1151 223.432C86.3423 222.947 85.7344 222.258 85.2912 221.364C84.848 220.47 84.6264 219.409 84.6264 218.182C84.6264 216.955 84.848 215.894 85.2912 215C85.7344 214.106 86.3423 213.417 87.1151 212.932C87.8878 212.447 88.7704 212.205 89.7628 212.205C90.3499 212.205 90.901 212.29 91.4162 212.46C91.9351 212.631 92.4029 212.881 92.8196 213.21C93.2363 213.536 93.5848 213.934 93.8651 214.403C94.1454 214.869 94.3385 215.402 94.4446 216ZM100.085 224.182C99.2973 224.182 98.6061 223.994 98.0114 223.619C97.4205 223.244 96.9583 222.72 96.625 222.045C96.2955 221.371 96.1307 220.583 96.1307 219.682C96.1307 218.773 96.2955 217.979 96.625 217.301C96.9583 216.623 97.4205 216.097 98.0114 215.722C98.6061 215.347 99.2973 215.159 100.085 215.159C100.873 215.159 101.563 215.347 102.153 215.722C102.748 216.097 103.21 216.623 103.54 217.301C103.873 217.979 104.04 218.773 104.04 219.682C104.04 220.583 103.873 221.371 103.54 222.045C103.21 222.72 102.748 223.244 102.153 223.619C101.563 223.994 100.873 224.182 100.085 224.182ZM100.085 222.977C100.684 222.977 101.176 222.824 101.562 222.517C101.949 222.21 102.235 221.807 102.42 221.307C102.606 220.807 102.699 220.265 102.699 219.682C102.699 219.098 102.606 218.555 102.42 218.051C102.235 217.547 101.949 217.14 101.562 216.83C101.176 216.519 100.684 216.364 100.085 216.364C99.4867 216.364 98.9943 216.519 98.608 216.83C98.2216 217.14 97.9356 217.547 97.75 218.051C97.5644 218.555 97.4716 219.098 97.4716 219.682C97.4716 220.265 97.5644 220.807 97.75 221.307C97.9356 221.807 98.2216 222.21 98.608 222.517C98.9943 222.824 99.4867 222.977 100.085 222.977ZM106.087 224V215.273H107.382V216.591H107.473C107.632 216.159 107.92 215.809 108.337 215.54C108.753 215.271 109.223 215.136 109.746 215.136C109.844 215.136 109.967 215.138 110.115 215.142C110.263 215.146 110.375 215.152 110.45 215.159V216.523C110.405 216.511 110.301 216.494 110.138 216.472C109.979 216.445 109.81 216.432 109.632 216.432C109.208 216.432 108.829 216.521 108.496 216.699C108.166 216.873 107.905 217.116 107.712 217.426C107.522 217.733 107.428 218.083 107.428 218.477V224H106.087ZM112.04 224V215.273H113.335V216.591H113.426C113.585 216.159 113.873 215.809 114.29 215.54C114.706 215.271 115.176 215.136 115.699 215.136C115.797 215.136 115.92 215.138 116.068 215.142C116.216 215.146 116.328 215.152 116.403 215.159V216.523C116.358 216.511 116.254 216.494 116.091 216.472C115.932 216.445 115.763 216.432 115.585 216.432C115.161 216.432 114.782 216.521 114.449 216.699C114.119 216.873 113.858 217.116 113.665 217.426C113.475 217.733 113.381 218.083 113.381 218.477V224H112.04ZM121.386 224.182C120.545 224.182 119.82 223.996 119.21 223.625C118.604 223.25 118.136 222.727 117.807 222.057C117.481 221.383 117.318 220.598 117.318 219.705C117.318 218.811 117.481 218.023 117.807 217.341C118.136 216.655 118.595 216.121 119.182 215.739C119.773 215.352 120.462 215.159 121.25 215.159C121.705 215.159 122.153 215.235 122.597 215.386C123.04 215.538 123.443 215.784 123.807 216.125C124.17 216.462 124.46 216.909 124.676 217.466C124.892 218.023 125 218.708 125 219.523V220.091H118.273V218.932H123.636C123.636 218.439 123.538 218 123.341 217.614C123.148 217.227 122.871 216.922 122.511 216.699C122.155 216.475 121.735 216.364 121.25 216.364C120.716 216.364 120.254 216.496 119.864 216.761C119.477 217.023 119.18 217.364 118.972 217.784C118.763 218.205 118.659 218.655 118.659 219.136V219.909C118.659 220.568 118.773 221.127 119 221.585C119.231 222.04 119.551 222.386 119.96 222.625C120.369 222.86 120.845 222.977 121.386 222.977C121.739 222.977 122.057 222.928 122.341 222.83C122.629 222.727 122.877 222.576 123.085 222.375C123.294 222.17 123.455 221.917 123.568 221.614L124.864 221.977C124.727 222.417 124.498 222.803 124.176 223.136C123.854 223.466 123.456 223.723 122.983 223.909C122.509 224.091 121.977 224.182 121.386 224.182ZM130.585 224.182C129.767 224.182 129.063 223.989 128.472 223.602C127.881 223.216 127.426 222.684 127.108 222.006C126.79 221.328 126.631 220.553 126.631 219.682C126.631 218.795 126.794 218.013 127.119 217.335C127.449 216.653 127.907 216.121 128.494 215.739C129.085 215.352 129.775 215.159 130.562 215.159C131.176 215.159 131.729 215.273 132.222 215.5C132.714 215.727 133.117 216.045 133.432 216.455C133.746 216.864 133.941 217.341 134.017 217.886H132.676C132.574 217.489 132.347 217.136 131.994 216.83C131.646 216.519 131.176 216.364 130.585 216.364C130.063 216.364 129.604 216.5 129.21 216.773C128.82 217.042 128.515 217.422 128.295 217.915C128.08 218.403 127.972 218.977 127.972 219.636C127.972 220.311 128.078 220.898 128.29 221.398C128.506 221.898 128.809 222.286 129.199 222.562C129.593 222.839 130.055 222.977 130.585 222.977C130.934 222.977 131.25 222.917 131.534 222.795C131.818 222.674 132.059 222.5 132.256 222.273C132.453 222.045 132.593 221.773 132.676 221.455H134.017C133.941 221.97 133.754 222.434 133.455 222.847C133.159 223.256 132.767 223.581 132.278 223.824C131.794 224.062 131.229 224.182 130.585 224.182ZM139.773 215.273V216.409H135.25V215.273H139.773ZM136.568 213.182H137.909V221.5C137.909 221.879 137.964 222.163 138.074 222.352C138.188 222.538 138.331 222.663 138.506 222.727C138.684 222.788 138.871 222.818 139.068 222.818C139.216 222.818 139.337 222.811 139.432 222.795C139.527 222.777 139.602 222.761 139.659 222.75L139.932 223.955C139.841 223.989 139.714 224.023 139.551 224.057C139.388 224.095 139.182 224.114 138.932 224.114C138.553 224.114 138.182 224.032 137.818 223.869C137.458 223.706 137.159 223.458 136.92 223.125C136.686 222.792 136.568 222.371 136.568 221.864V213.182ZM149.585 224.182C148.858 224.182 148.216 223.998 147.659 223.631C147.102 223.259 146.667 222.737 146.352 222.062C146.038 221.384 145.881 220.583 145.881 219.659C145.881 218.742 146.038 217.947 146.352 217.273C146.667 216.598 147.104 216.078 147.665 215.71C148.225 215.343 148.873 215.159 149.608 215.159C150.176 215.159 150.625 215.254 150.955 215.443C151.288 215.629 151.542 215.841 151.716 216.08C151.894 216.314 152.032 216.508 152.131 216.659H152.244V212.364H153.585V224H152.29V222.659H152.131C152.032 222.818 151.892 223.019 151.71 223.261C151.528 223.5 151.269 223.714 150.932 223.903C150.595 224.089 150.146 224.182 149.585 224.182ZM149.767 222.977C150.305 222.977 150.759 222.837 151.131 222.557C151.502 222.273 151.784 221.881 151.977 221.381C152.17 220.877 152.267 220.295 152.267 219.636C152.267 218.985 152.172 218.415 151.983 217.926C151.794 217.434 151.513 217.051 151.142 216.778C150.771 216.502 150.313 216.364 149.767 216.364C149.199 216.364 148.725 216.509 148.347 216.801C147.972 217.089 147.689 217.481 147.5 217.977C147.314 218.47 147.222 219.023 147.222 219.636C147.222 220.258 147.316 220.822 147.506 221.33C147.699 221.833 147.983 222.235 148.358 222.534C148.737 222.83 149.206 222.977 149.767 222.977ZM159.886 224.182C159.045 224.182 158.32 223.996 157.71 223.625C157.104 223.25 156.636 222.727 156.307 222.057C155.981 221.383 155.818 220.598 155.818 219.705C155.818 218.811 155.981 218.023 156.307 217.341C156.636 216.655 157.095 216.121 157.682 215.739C158.273 215.352 158.962 215.159 159.75 215.159C160.205 215.159 160.653 215.235 161.097 215.386C161.54 215.538 161.943 215.784 162.307 216.125C162.67 216.462 162.96 216.909 163.176 217.466C163.392 218.023 163.5 218.708 163.5 219.523V220.091H156.773V218.932H162.136C162.136 218.439 162.038 218 161.841 217.614C161.648 217.227 161.371 216.922 161.011 216.699C160.655 216.475 160.235 216.364 159.75 216.364C159.216 216.364 158.754 216.496 158.364 216.761C157.977 217.023 157.68 217.364 157.472 217.784C157.263 218.205 157.159 218.655 157.159 219.136V219.909C157.159 220.568 157.273 221.127 157.5 221.585C157.731 222.04 158.051 222.386 158.46 222.625C158.869 222.86 159.345 222.977 159.886 222.977C160.239 222.977 160.557 222.928 160.841 222.83C161.129 222.727 161.377 222.576 161.585 222.375C161.794 222.17 161.955 221.917 162.068 221.614L163.364 221.977C163.227 222.417 162.998 222.803 162.676 223.136C162.354 223.466 161.956 223.723 161.483 223.909C161.009 224.091 160.477 224.182 159.886 224.182ZM169.335 215.273V216.409H164.812V215.273H169.335ZM166.131 213.182H167.472V221.5C167.472 221.879 167.527 222.163 167.636 222.352C167.75 222.538 167.894 222.663 168.068 222.727C168.246 222.788 168.434 222.818 168.631 222.818C168.778 222.818 168.9 222.811 168.994 222.795C169.089 222.777 169.165 222.761 169.222 222.75L169.494 223.955C169.403 223.989 169.277 224.023 169.114 224.057C168.951 224.095 168.744 224.114 168.494 224.114C168.116 224.114 167.744 224.032 167.381 223.869C167.021 223.706 166.722 223.458 166.483 223.125C166.248 222.792 166.131 222.371 166.131 221.864V213.182ZM173.92 224.205C173.367 224.205 172.866 224.1 172.415 223.892C171.964 223.68 171.606 223.375 171.341 222.977C171.076 222.576 170.943 222.091 170.943 221.523C170.943 221.023 171.042 220.617 171.239 220.307C171.436 219.992 171.699 219.746 172.028 219.568C172.358 219.39 172.722 219.258 173.119 219.17C173.521 219.08 173.924 219.008 174.33 218.955C174.86 218.886 175.29 218.835 175.619 218.801C175.953 218.763 176.195 218.701 176.347 218.614C176.502 218.527 176.58 218.375 176.58 218.159V218.114C176.58 217.553 176.426 217.117 176.119 216.807C175.816 216.496 175.356 216.341 174.739 216.341C174.098 216.341 173.597 216.481 173.233 216.761C172.869 217.042 172.614 217.341 172.466 217.659L171.193 217.205C171.42 216.674 171.723 216.261 172.102 215.966C172.485 215.667 172.902 215.458 173.352 215.341C173.807 215.22 174.254 215.159 174.693 215.159C174.973 215.159 175.295 215.193 175.659 215.261C176.027 215.326 176.381 215.46 176.722 215.665C177.066 215.869 177.352 216.178 177.58 216.591C177.807 217.004 177.92 217.557 177.92 218.25V224H176.58V222.818H176.511C176.42 223.008 176.269 223.21 176.057 223.426C175.845 223.642 175.563 223.826 175.21 223.977C174.858 224.129 174.428 224.205 173.92 224.205ZM174.125 223C174.655 223 175.102 222.896 175.466 222.688C175.833 222.479 176.11 222.21 176.295 221.881C176.485 221.551 176.58 221.205 176.58 220.841V219.614C176.523 219.682 176.398 219.744 176.205 219.801C176.015 219.854 175.795 219.902 175.545 219.943C175.299 219.981 175.059 220.015 174.824 220.045C174.593 220.072 174.405 220.095 174.261 220.114C173.913 220.159 173.587 220.233 173.284 220.335C172.985 220.434 172.742 220.583 172.557 220.784C172.375 220.981 172.284 221.25 172.284 221.591C172.284 222.057 172.456 222.409 172.801 222.648C173.15 222.883 173.591 223 174.125 223ZM180.368 224V215.273H181.709V224H180.368ZM181.05 213.818C180.788 213.818 180.563 213.729 180.374 213.551C180.188 213.373 180.095 213.159 180.095 212.909C180.095 212.659 180.188 212.445 180.374 212.267C180.563 212.089 180.788 212 181.05 212C181.311 212 181.535 212.089 181.72 212.267C181.91 212.445 182.004 212.659 182.004 212.909C182.004 213.159 181.91 213.373 181.72 213.551C181.535 213.729 181.311 213.818 181.05 213.818ZM185.506 212.364V224H184.165V212.364H185.506ZM194.143 217.227L192.939 217.568C192.863 217.367 192.751 217.172 192.604 216.983C192.46 216.79 192.263 216.631 192.013 216.506C191.763 216.381 191.443 216.318 191.053 216.318C190.518 216.318 190.073 216.441 189.717 216.688C189.365 216.93 189.189 217.239 189.189 217.614C189.189 217.947 189.31 218.21 189.553 218.403C189.795 218.597 190.174 218.758 190.689 218.886L191.984 219.205C192.765 219.394 193.346 219.684 193.729 220.074C194.111 220.46 194.303 220.958 194.303 221.568C194.303 222.068 194.159 222.515 193.871 222.909C193.587 223.303 193.189 223.614 192.678 223.841C192.166 224.068 191.571 224.182 190.893 224.182C190.003 224.182 189.267 223.989 188.683 223.602C188.1 223.216 187.731 222.652 187.575 221.909L188.848 221.591C188.969 222.061 189.198 222.413 189.536 222.648C189.876 222.883 190.321 223 190.871 223C191.496 223 191.992 222.867 192.359 222.602C192.731 222.333 192.916 222.011 192.916 221.636C192.916 221.333 192.81 221.08 192.598 220.875C192.386 220.667 192.06 220.511 191.621 220.409L190.166 220.068C189.367 219.879 188.78 219.585 188.405 219.188C188.034 218.786 187.848 218.284 187.848 217.682C187.848 217.189 187.986 216.754 188.263 216.375C188.543 215.996 188.924 215.699 189.405 215.483C189.89 215.267 190.439 215.159 191.053 215.159C191.916 215.159 192.594 215.348 193.087 215.727C193.583 216.106 193.935 216.606 194.143 217.227ZM204.366 224.182C203.579 224.182 202.887 223.994 202.293 223.619C201.702 223.244 201.24 222.72 200.906 222.045C200.577 221.371 200.412 220.583 200.412 219.682C200.412 218.773 200.577 217.979 200.906 217.301C201.24 216.623 201.702 216.097 202.293 215.722C202.887 215.347 203.579 215.159 204.366 215.159C205.154 215.159 205.844 215.347 206.435 215.722C207.029 216.097 207.491 216.623 207.821 217.301C208.154 217.979 208.321 218.773 208.321 219.682C208.321 220.583 208.154 221.371 207.821 222.045C207.491 222.72 207.029 223.244 206.435 223.619C205.844 223.994 205.154 224.182 204.366 224.182ZM204.366 222.977C204.965 222.977 205.457 222.824 205.844 222.517C206.23 222.21 206.516 221.807 206.702 221.307C206.887 220.807 206.98 220.265 206.98 219.682C206.98 219.098 206.887 218.555 206.702 218.051C206.516 217.547 206.23 217.14 205.844 216.83C205.457 216.519 204.965 216.364 204.366 216.364C203.768 216.364 203.276 216.519 202.889 216.83C202.503 217.14 202.217 217.547 202.031 218.051C201.846 218.555 201.753 219.098 201.753 219.682C201.753 220.265 201.846 220.807 202.031 221.307C202.217 221.807 202.503 222.21 202.889 222.517C203.276 222.824 203.768 222.977 204.366 222.977ZM214.254 215.273V216.409H209.55V215.273H214.254ZM210.959 224V214.068C210.959 213.568 211.076 213.152 211.311 212.818C211.546 212.485 211.851 212.235 212.226 212.068C212.601 211.902 212.997 211.818 213.413 211.818C213.743 211.818 214.012 211.845 214.22 211.898C214.429 211.951 214.584 212 214.686 212.045L214.3 213.205C214.232 213.182 214.137 213.153 214.016 213.119C213.898 213.085 213.743 213.068 213.55 213.068C213.107 213.068 212.786 213.18 212.589 213.403C212.396 213.627 212.3 213.955 212.3 214.386V224H210.959ZM220.634 224V215.273H221.974V224H220.634ZM221.315 213.818C221.054 213.818 220.829 213.729 220.639 213.551C220.454 213.373 220.361 213.159 220.361 212.909C220.361 212.659 220.454 212.445 220.639 212.267C220.829 212.089 221.054 212 221.315 212C221.577 212 221.8 212.089 221.986 212.267C222.175 212.445 222.27 212.659 222.27 212.909C222.27 213.159 222.175 213.373 221.986 213.551C221.8 213.729 221.577 213.818 221.315 213.818ZM225.771 218.75V224H224.43V215.273H225.726V216.636H225.839C226.044 216.193 226.355 215.837 226.771 215.568C227.188 215.295 227.726 215.159 228.385 215.159C228.976 215.159 229.493 215.28 229.936 215.523C230.379 215.761 230.724 216.125 230.97 216.614C231.216 217.098 231.339 217.712 231.339 218.455V224H229.999V218.545C229.999 217.86 229.821 217.326 229.464 216.943C229.108 216.557 228.62 216.364 227.999 216.364C227.571 216.364 227.188 216.456 226.851 216.642C226.518 216.828 226.254 217.098 226.061 217.455C225.868 217.811 225.771 218.242 225.771 218.75ZM237.676 215.273V216.409H232.972V215.273H237.676ZM234.381 224V214.068C234.381 213.568 234.498 213.152 234.733 212.818C234.968 212.485 235.273 212.235 235.648 212.068C236.023 211.902 236.419 211.818 236.835 211.818C237.165 211.818 237.434 211.845 237.642 211.898C237.85 211.951 238.006 212 238.108 212.045L237.722 213.205C237.653 213.182 237.559 213.153 237.438 213.119C237.32 213.085 237.165 213.068 236.972 213.068C236.528 213.068 236.208 213.18 236.011 213.403C235.818 213.627 235.722 213.955 235.722 214.386V224H234.381ZM242.741 224.182C241.954 224.182 241.262 223.994 240.668 223.619C240.077 223.244 239.615 222.72 239.281 222.045C238.952 221.371 238.787 220.583 238.787 219.682C238.787 218.773 238.952 217.979 239.281 217.301C239.615 216.623 240.077 216.097 240.668 215.722C241.262 215.347 241.954 215.159 242.741 215.159C243.529 215.159 244.219 215.347 244.81 215.722C245.404 216.097 245.866 216.623 246.196 217.301C246.529 217.979 246.696 218.773 246.696 219.682C246.696 220.583 246.529 221.371 246.196 222.045C245.866 222.72 245.404 223.244 244.81 223.619C244.219 223.994 243.529 224.182 242.741 224.182ZM242.741 222.977C243.34 222.977 243.832 222.824 244.219 222.517C244.605 222.21 244.891 221.807 245.077 221.307C245.262 220.807 245.355 220.265 245.355 219.682C245.355 219.098 245.262 218.555 245.077 218.051C244.891 217.547 244.605 217.14 244.219 216.83C243.832 216.519 243.34 216.364 242.741 216.364C242.143 216.364 241.651 216.519 241.264 216.83C240.878 217.14 240.592 217.547 240.406 218.051C240.221 218.555 240.128 219.098 240.128 219.682C240.128 220.265 240.221 220.807 240.406 221.307C240.592 221.807 240.878 222.21 241.264 222.517C241.651 222.824 242.143 222.977 242.741 222.977ZM248.743 224V215.273H250.038V216.591H250.129C250.288 216.159 250.576 215.809 250.993 215.54C251.41 215.271 251.879 215.136 252.402 215.136C252.5 215.136 252.624 215.138 252.771 215.142C252.919 215.146 253.031 215.152 253.107 215.159V216.523C253.061 216.511 252.957 216.494 252.794 216.472C252.635 216.445 252.466 216.432 252.288 216.432C251.864 216.432 251.485 216.521 251.152 216.699C250.822 216.873 250.561 217.116 250.368 217.426C250.179 217.733 250.084 218.083 250.084 218.477V224H248.743ZM254.696 224V215.273H255.991V216.636H256.105C256.287 216.17 256.58 215.809 256.986 215.551C257.391 215.29 257.878 215.159 258.446 215.159C259.022 215.159 259.501 215.29 259.884 215.551C260.27 215.809 260.571 216.17 260.787 216.636H260.878C261.101 216.186 261.437 215.828 261.884 215.562C262.33 215.294 262.866 215.159 263.491 215.159C264.272 215.159 264.91 215.403 265.406 215.892C265.902 216.377 266.151 217.133 266.151 218.159V224H264.81V218.159C264.81 217.515 264.634 217.055 264.281 216.778C263.929 216.502 263.514 216.364 263.037 216.364C262.423 216.364 261.948 216.549 261.611 216.92C261.274 217.288 261.105 217.754 261.105 218.318V224H259.741V218.023C259.741 217.527 259.58 217.127 259.259 216.824C258.937 216.517 258.522 216.364 258.014 216.364C257.666 216.364 257.34 216.456 257.037 216.642C256.738 216.828 256.495 217.085 256.31 217.415C256.128 217.741 256.037 218.117 256.037 218.545V224H254.696ZM271.17 224.205C270.617 224.205 270.116 224.1 269.665 223.892C269.214 223.68 268.856 223.375 268.591 222.977C268.326 222.576 268.193 222.091 268.193 221.523C268.193 221.023 268.292 220.617 268.489 220.307C268.686 219.992 268.949 219.746 269.278 219.568C269.608 219.39 269.972 219.258 270.369 219.17C270.771 219.08 271.174 219.008 271.58 218.955C272.11 218.886 272.54 218.835 272.869 218.801C273.203 218.763 273.445 218.701 273.597 218.614C273.752 218.527 273.83 218.375 273.83 218.159V218.114C273.83 217.553 273.676 217.117 273.369 216.807C273.066 216.496 272.606 216.341 271.989 216.341C271.348 216.341 270.847 216.481 270.483 216.761C270.119 217.042 269.864 217.341 269.716 217.659L268.443 217.205C268.67 216.674 268.973 216.261 269.352 215.966C269.735 215.667 270.152 215.458 270.602 215.341C271.057 215.22 271.504 215.159 271.943 215.159C272.223 215.159 272.545 215.193 272.909 215.261C273.277 215.326 273.631 215.46 273.972 215.665C274.316 215.869 274.602 216.178 274.83 216.591C275.057 217.004 275.17 217.557 275.17 218.25V224H273.83V222.818H273.761C273.67 223.008 273.519 223.21 273.307 223.426C273.095 223.642 272.813 223.826 272.46 223.977C272.108 224.129 271.678 224.205 271.17 224.205ZM271.375 223C271.905 223 272.352 222.896 272.716 222.688C273.083 222.479 273.36 222.21 273.545 221.881C273.735 221.551 273.83 221.205 273.83 220.841V219.614C273.773 219.682 273.648 219.744 273.455 219.801C273.265 219.854 273.045 219.902 272.795 219.943C272.549 219.981 272.309 220.015 272.074 220.045C271.843 220.072 271.655 220.095 271.511 220.114C271.163 220.159 270.837 220.233 270.534 220.335C270.235 220.434 269.992 220.583 269.807 220.784C269.625 220.981 269.534 221.25 269.534 221.591C269.534 222.057 269.706 222.409 270.051 222.648C270.4 222.883 270.841 223 271.375 223ZM281.413 215.273V216.409H276.891V215.273H281.413ZM278.209 213.182H279.55V221.5C279.55 221.879 279.605 222.163 279.714 222.352C279.828 222.538 279.972 222.663 280.146 222.727C280.324 222.788 280.512 222.818 280.709 222.818C280.857 222.818 280.978 222.811 281.072 222.795C281.167 222.777 281.243 222.761 281.3 222.75L281.572 223.955C281.482 223.989 281.355 224.023 281.192 224.057C281.029 224.095 280.822 224.114 280.572 224.114C280.194 224.114 279.822 224.032 279.459 223.869C279.099 223.706 278.8 223.458 278.561 223.125C278.326 222.792 278.209 222.371 278.209 221.864V213.182ZM283.43 224V215.273H284.771V224H283.43ZM284.112 213.818C283.851 213.818 283.625 213.729 283.436 213.551C283.25 213.373 283.158 213.159 283.158 212.909C283.158 212.659 283.25 212.445 283.436 212.267C283.625 212.089 283.851 212 284.112 212C284.374 212 284.597 212.089 284.783 212.267C284.972 212.445 285.067 212.659 285.067 212.909C285.067 213.159 284.972 213.373 284.783 213.551C284.597 213.729 284.374 213.818 284.112 213.818ZM290.773 224.182C289.985 224.182 289.294 223.994 288.699 223.619C288.108 223.244 287.646 222.72 287.312 222.045C286.983 221.371 286.818 220.583 286.818 219.682C286.818 218.773 286.983 217.979 287.312 217.301C287.646 216.623 288.108 216.097 288.699 215.722C289.294 215.347 289.985 215.159 290.773 215.159C291.561 215.159 292.25 215.347 292.841 215.722C293.436 216.097 293.898 216.623 294.227 217.301C294.561 217.979 294.727 218.773 294.727 219.682C294.727 220.583 294.561 221.371 294.227 222.045C293.898 222.72 293.436 223.244 292.841 223.619C292.25 223.994 291.561 224.182 290.773 224.182ZM290.773 222.977C291.371 222.977 291.864 222.824 292.25 222.517C292.636 222.21 292.922 221.807 293.108 221.307C293.294 220.807 293.386 220.265 293.386 219.682C293.386 219.098 293.294 218.555 293.108 218.051C292.922 217.547 292.636 217.14 292.25 216.83C291.864 216.519 291.371 216.364 290.773 216.364C290.174 216.364 289.682 216.519 289.295 216.83C288.909 217.14 288.623 217.547 288.438 218.051C288.252 218.555 288.159 219.098 288.159 219.682C288.159 220.265 288.252 220.807 288.438 221.307C288.623 221.807 288.909 222.21 289.295 222.517C289.682 222.824 290.174 222.977 290.773 222.977ZM298.115 218.75V224H296.774V215.273H298.07V216.636H298.183C298.388 216.193 298.698 215.837 299.115 215.568C299.532 215.295 300.07 215.159 300.729 215.159C301.32 215.159 301.837 215.28 302.28 215.523C302.723 215.761 303.068 216.125 303.314 216.614C303.56 217.098 303.683 217.712 303.683 218.455V224H302.342V218.545C302.342 217.86 302.164 217.326 301.808 216.943C301.452 216.557 300.964 216.364 300.342 216.364C299.914 216.364 299.532 216.456 299.195 216.642C298.861 216.828 298.598 217.098 298.405 217.455C298.212 217.811 298.115 218.242 298.115 218.75Z" fill="#898585"/>
</svg>
